<?xml version="1.0" encoding="utf-8"?>
<!-- Generator: Adobe Illustrator 15.0.0, SVG Export Plug-In . SVG Version: 6.00 Build 0)  -->
<!DOCTYPE svg PUBLIC "-//W3C//DTD SVG 1.1//EN" "http://www.w3.org/Graphics/SVG/1.1/DTD/svg11.dtd">
<svg version="1.1" id="Layer_1" xmlns="http://www.w3.org/2000/svg" xmlns:xlink="http://www.w3.org/1999/xlink" x="0px" y="0px"
	 width="479.625px" height="171.678px" viewBox="0 0 479.625 171.678" enable-background="new 0 0 479.625 171.678"
	 xml:space="preserve">
<g>
	<g>
		<path fill="#8C191C" d="M65.79,98.945l0.49,3c-3.183,0.855-7.222,1.285-12.118,1.285c-5.937,0-10.159-1.652-12.546-4.896
			c-2.387-3.242-3.611-8.936-3.611-16.952c0-8.018,1.224-13.709,3.611-16.952c2.387-3.244,6.609-4.896,12.546-4.896
			c4.467,0,8.201,0.367,11.261,1.162l-0.49,3c-3.121-0.367-6.671-0.552-10.771-0.552c-4.468,0-7.589,1.347-9.364,3.978
			c-1.775,2.633-2.631,7.406-2.631,14.261c0,6.855,0.856,11.628,2.631,14.259c1.775,2.633,4.896,3.979,9.364,3.979
			C58.813,99.619,62.73,99.375,65.79,98.945z"/>
		<path fill="#8C191C" d="M75.398,75.628c2.081-2.325,5.569-3.549,10.526-3.549s8.507,1.162,10.526,3.549
			c2.02,2.326,3.06,6.365,3.06,12.118c0,5.691-1.041,9.73-3.06,12.057c-2.02,2.326-5.569,3.488-10.526,3.488
			s-8.507-1.162-10.526-3.549c-2.081-2.326-3.06-6.365-3.06-12.059C72.277,81.994,73.318,77.955,75.398,75.628z M93.391,78.076
			c-1.408-1.774-3.855-2.631-7.466-2.631s-6.059,0.856-7.466,2.631c-1.407,1.775-2.081,4.958-2.081,9.608
			c0,4.652,0.673,7.834,2.081,9.609c1.408,1.773,3.855,2.631,7.466,2.631s6.059-0.857,7.466-2.631
			c1.407-1.775,2.081-4.957,2.081-9.609C95.472,83.034,94.799,79.851,93.391,78.076z"/>
		<path fill="#8C191C" d="M111.506,72.875l0.245,4.896c4.345-3.794,8.506-5.69,12.484-5.69c4.223,0,6.732,1.836,7.528,5.568
			c4.345-3.732,8.445-5.568,12.362-5.568c2.509,0,4.468,0.673,5.814,2.08c1.347,1.408,2.02,3.428,2.02,6.06v22.277h-3.855V81.26
			c-0.061-2.021-0.49-3.55-1.285-4.407c-0.857-0.918-2.142-1.346-3.978-1.346c-1.652,0-3.183,0.367-4.712,1.163
			c-1.53,0.733-3.55,2.081-6.12,4.04v21.909h-3.733V81.383c0-2.021-0.429-3.55-1.285-4.406c-0.857-0.856-2.204-1.347-3.978-1.347
			c-1.591,0-3.122,0.367-4.651,1.162c-1.53,0.734-3.611,2.082-6.12,3.979v21.971h-3.855v-29.62h3.121v-0.248H111.506z"/>
		<path fill="#8C191C" d="M165.178,72.875l0.367,4.896c3.794-3.794,7.895-5.69,12.24-5.69c3.672,0,6.304,1.285,7.955,3.793
			c1.652,2.51,2.449,6.487,2.449,11.934c0,5.57-0.857,9.549-2.57,11.936c-1.713,2.324-4.529,3.549-8.446,3.549
			s-7.711-1.039-11.444-3.121c0.184,1.652,0.184,3.611,0.123,5.877v8.934h-3.855V72.876h3.181V72.875z M165.852,80.585V97.6
			c4.529,1.469,8.017,2.203,10.465,2.203c2.876,0,4.957-0.857,6.12-2.57s1.775-4.896,1.775-9.484c0-4.469-0.552-7.651-1.714-9.487
			s-3.059-2.754-5.813-2.754c-1.652,0-3.244,0.367-4.896,1.225C170.197,77.527,168.177,78.811,165.852,80.585z"/>
		<path fill="#8C191C" d="M221.421,72.875v29.622h-3.06l-0.307-4.652c-4.59,3.611-8.936,5.387-13.158,5.387
			c-5.324,0-8.017-2.693-8.017-8.08V72.875h3.854v21.237c0,2.02,0.43,3.488,1.285,4.406c0.857,0.918,2.266,1.346,4.162,1.346
			c1.653,0,3.366-0.365,5.02-1.102c1.652-0.734,3.793-2.02,6.365-3.793V72.875H221.421L221.421,72.875z"/>
		<path fill="#8C191C" d="M246.82,99.436l0.488,2.938c-2.02,0.43-4.1,0.611-6.18,0.611c-4.896,0-7.345-2.447-7.345-7.404V75.935
			h-5.385v-2.754l5.385-0.307v-8.995h3.855v8.995h10.037v3.061h-10.037V95.15c0,2.877,1.469,4.285,4.345,4.285H246.82L246.82,99.436
			z"/>
		<path fill="#8C191C" d="M254.285,76.302l-0.367-2.876c5.938-0.918,10.648-1.347,14.26-1.347c3.184,0,5.57,0.734,7.16,2.143
			c1.592,1.407,2.326,3.732,2.326,7.038v21.296h-3.061l-0.49-5.201c-1.469,1.469-3.365,2.754-5.689,3.979
			c-2.326,1.164-4.773,1.715-7.223,1.715c-2.633,0-4.65-0.674-6.182-2.082c-1.529-1.406-2.264-3.365-2.264-5.938v-3.426
			c0-2.266,0.672-4.039,2.02-5.324c1.346-1.285,3.242-1.896,5.752-1.896h13.281v-3.122c0-1.958-0.49-3.428-1.348-4.346
			c-0.918-0.918-2.57-1.407-4.957-1.407C263.955,75.445,259.549,75.751,254.285,76.302z M256.611,92.029v2.57
			c0,3.307,1.715,4.959,5.203,4.959c1.773,0.061,3.793-0.43,5.996-1.348s4.162-2.143,5.938-3.672v-7.1H261.08
			C258.143,87.562,256.611,89.092,256.611,92.029z"/>
		<path fill="#8C191C" d="M302.756,99.436l0.49,2.938c-2.021,0.43-4.102,0.611-6.182,0.611c-4.896,0-7.344-2.447-7.344-7.404V75.935
			h-5.387v-2.754l5.387-0.307v-8.995h3.855v8.995h10.035v3.061h-10.035V95.15c0,2.877,1.469,4.285,4.344,4.285H302.756
			L302.756,99.436z"/>
		<path fill="#8C191C" d="M311.568,60.389h1.775c0.857,0,1.285,0.429,1.285,1.285v3.55c0,0.857-0.428,1.285-1.285,1.285h-1.775
			c-0.855,0-1.283-0.428-1.283-1.285v-3.55C310.283,60.818,310.713,60.389,311.568,60.389z M314.385,102.496h-3.855V72.875h3.855
			V102.496z"/>
		<path fill="#8C191C" d="M326.502,75.628c2.08-2.325,5.568-3.549,10.525-3.549s8.508,1.162,10.527,3.549
			c2.02,2.326,3.059,6.365,3.059,12.118c0,5.691-1.039,9.73-3.059,12.057s-5.57,3.488-10.527,3.488s-8.506-1.162-10.525-3.549
			c-2.08-2.326-3.061-6.365-3.061-12.059C323.381,81.994,324.422,77.955,326.502,75.628z M344.494,78.076
			c-1.406-1.774-3.855-2.631-7.467-2.631c-3.609,0-6.059,0.856-7.467,2.631c-1.406,1.775-2.08,4.958-2.08,9.608
			c0,4.652,0.674,7.834,2.08,9.609c1.408,1.773,3.855,2.631,7.467,2.631s6.061-0.857,7.467-2.631
			c1.408-1.775,2.082-4.957,2.082-9.609C346.576,83.034,345.902,79.851,344.494,78.076z"/>
		<path fill="#8C191C" d="M362.672,72.875l0.305,4.896c4.957-3.794,9.486-5.69,13.709-5.69c5.324,0,7.957,2.692,7.957,8.139v22.278
			h-3.855V81.259c0-2.081-0.367-3.55-1.225-4.469c-0.795-0.918-2.08-1.346-3.916-1.346c-1.775,0-3.611,0.428-5.447,1.224
			c-1.836,0.795-4.102,2.142-6.854,3.917v21.911h-3.918V72.875H362.672L362.672,72.875z"/>
		<path fill="#8C191C" d="M394.68,76.302l-0.367-2.876c5.938-0.918,10.648-1.347,14.258-1.347c3.184,0,5.57,0.734,7.162,2.143
			c1.59,1.407,2.324,3.732,2.324,7.038v21.296h-3.059l-0.49-5.201c-1.469,1.469-3.365,2.754-5.754,3.979
			c-2.324,1.164-4.773,1.715-7.221,1.715c-2.633,0-4.65-0.674-6.182-2.082c-1.531-1.406-2.266-3.365-2.266-5.938v-3.426
			c0-2.266,0.674-4.039,2.02-5.324c1.348-1.285,3.244-1.896,5.754-1.896h13.279v-3.122c0-1.958-0.488-3.428-1.346-4.346
			c-0.918-0.918-2.57-1.407-4.896-1.407C404.348,75.445,399.941,75.751,394.68,76.302z M397.004,92.029v2.57
			c0,3.307,1.715,4.959,5.203,4.959c1.773,0.061,3.793-0.43,6.059-1.348c2.203-0.918,4.162-2.143,5.875-3.672v-7.1h-12.668
			C398.535,87.562,397.004,89.092,397.004,92.029z"/>
		<path fill="#8C191C" d="M432.012,59.656v35.497c0,2.875,1.469,4.283,4.344,4.283h3.121l0.43,2.938
			c-1.102,0.43-2.754,0.611-4.896,0.611c-2.141,0-3.793-0.611-5.02-1.836c-1.223-1.223-1.836-2.998-1.836-5.201v-36.23h3.857V59.656
			L432.012,59.656z"/>
	</g>
	<g>
		<path fill="#8C191C" d="M50.735,119.447v34.027c0,5.814-2.632,8.691-7.956,8.691c-1.652,0-3.305-0.186-5.019-0.613l0.429-2.814
			h3.244c3.488,0,5.263-1.713,5.263-5.141v-34.15H50.735L50.735,119.447z"/>
		<path fill="#8C191C" d="M62.974,134.748c2.081-2.326,5.569-3.551,10.527-3.551c4.957,0,8.506,1.162,10.526,3.551
			c2.02,2.324,3.06,6.363,3.06,12.117c0,5.691-1.04,9.73-3.06,12.057s-5.569,3.488-10.526,3.488c-4.958,0-8.507-1.162-10.527-3.551
			c-2.081-2.324-3.06-6.363-3.06-12.057C59.853,141.113,60.894,137.135,62.974,134.748z M80.968,137.258
			c-1.408-1.775-3.856-2.633-7.466-2.633c-3.611,0-6.059,0.855-7.467,2.633c-1.407,1.773-2.081,4.957-2.081,9.607
			s0.673,7.832,2.081,9.607c1.408,1.775,3.856,2.631,7.467,2.631c3.61,0,6.059-0.855,7.466-2.631
			c1.407-1.775,2.081-4.957,2.081-9.607C83.048,142.215,82.375,138.971,80.968,137.258z"/>
		<path fill="#8C191C" d="M120.258,132.055v29.621h-3.06l-0.306-4.65c-4.59,3.609-8.935,5.387-13.158,5.387
			c-5.324,0-8.017-2.693-8.017-8.08v-22.275h3.855v21.236c0,2.02,0.429,3.486,1.285,4.404c0.857,0.918,2.265,1.348,4.162,1.348
			c1.652,0,3.366-0.367,5.019-1.162c1.652-0.734,3.794-2.021,6.365-3.734v-22.092h3.855V132.055z"/>
		<path fill="#8C191C" d="M148.41,131.26l-0.49,3.672h-1.469c-1.713,0-3.427,0.367-5.202,1.102
			c-1.775,0.734-3.978,1.896-6.732,3.551v22.152H130.6v-29.621h2.999l0.428,4.896c4.835-3.795,9.241-5.691,13.097-5.691h1.285
			L148.41,131.26L148.41,131.26z"/>
		<path fill="#8C191C" d="M157.957,132.055l0.306,4.896c4.957-3.795,9.486-5.691,13.709-5.691c5.324,0,7.956,2.693,7.956,8.141
			v22.277h-3.856v-21.238c0-2.08-0.367-3.549-1.163-4.467s-2.142-1.346-3.978-1.346c-1.775,0-3.611,0.428-5.447,1.223
			c-1.836,0.797-4.101,2.145-6.854,3.918v21.91h-3.917v-29.621h3.244V132.055z"/>
		<path fill="#8C191C" d="M189.965,135.482l-0.367-2.877c5.938-0.918,10.648-1.346,14.26-1.346c3.182,0,5.569,0.734,7.1,2.141
			c1.591,1.408,2.387,3.734,2.387,7.039v21.297h-3.061l-0.489-5.201c-1.47,1.469-3.366,2.754-5.752,3.979
			c-2.326,1.164-4.774,1.715-7.283,1.715c-2.631,0-4.651-0.674-6.181-2.082c-1.53-1.408-2.264-3.365-2.264-5.936v-3.43
			c0-2.264,0.672-4.039,2.02-5.322c1.347-1.285,3.244-1.896,5.753-1.896h13.28v-3.123c0-1.957-0.49-3.426-1.347-4.344
			c-0.918-0.918-2.571-1.408-4.958-1.408C199.634,134.625,195.228,134.871,189.965,135.482z M192.29,151.211v2.568
			c0,3.307,1.714,4.957,5.203,4.957c1.773,0.062,3.793-0.428,6.059-1.346c2.203-0.918,4.162-2.143,5.875-3.672v-7.1h-12.668
			C193.821,146.742,192.29,148.273,192.29,151.211z"/>
		<path fill="#8C191C" d="M227.297,118.836v35.496c0,2.877,1.469,4.283,4.345,4.283h3.121l0.429,2.938
			c-1.102,0.43-2.754,0.613-4.896,0.613s-3.794-0.613-5.019-1.836c-1.224-1.227-1.836-3-1.836-5.203v-36.23h3.855V118.836z"/>
		<path fill="#8C191C" d="M242.229,119.57h1.775c0.855,0,1.285,0.43,1.285,1.285v3.549c0,0.857-0.43,1.285-1.285,1.285h-1.775
			c-0.855,0-1.285-0.428-1.285-1.285v-3.549C240.943,119.998,241.373,119.57,242.229,119.57z M245.045,161.676h-3.855v-29.621h3.855
			V161.676z"/>
		<path fill="#8C191C" d="M269.342,149.129l-9.059-1.713c-2.324-0.43-3.979-1.285-5.02-2.57c-1.039-1.225-1.529-3.061-1.529-5.508
			c0-3.365,0.857-5.508,2.51-6.609c1.713-1.041,4.65-1.531,8.875-1.531c4.467,0.062,8.506,0.367,12.115,0.918l-0.365,2.816
			c-4.896-0.244-8.631-0.367-11.262-0.367c-3.244-0.061-5.445,0.184-6.486,0.734c-1.041,0.49-1.592,1.836-1.592,3.979
			c0,1.652,0.367,2.814,1.039,3.488c0.676,0.672,1.836,1.162,3.488,1.469l9.119,1.713c2.387,0.49,4.102,1.348,5.203,2.57
			c1.102,1.225,1.65,2.998,1.65,5.387c0,3.488-0.918,5.752-2.814,6.793c-1.836,1.039-5.02,1.592-9.484,1.592
			c-4.041,0-7.834-0.244-11.322-0.797l0.307-2.877c3.244,0.307,6.67,0.43,10.342,0.367c3.611-0.061,6.061-0.367,7.283-1.039
			c1.225-0.611,1.896-1.959,1.896-4.102c0-1.592-0.367-2.693-1.162-3.365C272.279,149.926,271.055,149.436,269.342,149.129z"/>
		<path fill="#8C191C" d="M289.598,132.055l0.246,4.896c4.344-3.795,8.506-5.691,12.484-5.691c4.223,0,6.73,1.836,7.527,5.57
			c4.346-3.734,8.445-5.57,12.361-5.57c2.51,0,4.469,0.674,5.812,2.082c1.348,1.406,2.021,3.426,2.021,6.059v22.277h-3.855v-21.238
			c-0.061-2.02-0.488-3.549-1.346-4.406c-0.857-0.918-2.143-1.346-3.979-1.346c-1.652,0-3.184,0.367-4.713,1.104
			c-1.529,0.732-3.551,2.08-6.119,4.039v21.908h-3.674v-21.236c0-2.02-0.428-3.549-1.283-4.406c-0.857-0.918-2.205-1.346-3.98-1.346
			c-1.59,0-3.182,0.365-4.711,1.102c-1.531,0.734-3.551,2.08-6.121,3.979v21.971h-3.854V132.18h3.182V132.055L289.598,132.055z"/>
	</g>
	<g>
		<path fill="#8C191C" d="M355.389,119.447v34.396c0,2.998,1.469,4.467,4.406,4.467h15.729l0.123,3.061
			c-4.346,0.244-9.854,0.367-16.523,0.367c-2.57,0-4.529-0.674-5.814-2.02c-1.285-1.348-1.959-3.121-1.959-5.324v-34.945h4.039
			V119.447z"/>
		<path fill="#8C191C" d="M382.193,135.482l-0.365-2.877c5.936-0.918,10.648-1.346,14.26-1.346c3.182,0,5.568,0.734,7.16,2.141
			c1.592,1.408,2.324,3.734,2.324,7.039v21.297h-3.061l-0.488-5.201c-1.469,1.469-3.367,2.754-5.691,3.979
			c-2.326,1.164-4.773,1.715-7.283,1.715c-2.631,0-4.65-0.674-6.18-2.082c-1.531-1.408-2.266-3.365-2.266-5.936v-3.43
			c0-2.264,0.672-4.039,2.02-5.322c1.348-1.285,3.242-1.896,5.754-1.896h13.279v-3.123c0-1.957-0.488-3.426-1.348-4.344
			c-0.918-0.918-2.57-1.408-4.957-1.408C391.863,134.625,387.457,134.871,382.193,135.482z M384.52,151.211v2.568
			c0,3.307,1.713,4.957,5.201,4.957c1.775,0.062,3.795-0.428,5.998-1.346s4.162-2.143,5.938-3.672v-7.1h-12.67
			C385.988,146.742,384.52,148.273,384.52,151.211z"/>
		<path fill="#8C191C" d="M419.342,118.836v11.873c0,2.875-0.121,4.957-0.428,6.363c3.979-3.855,7.895-5.812,11.75-5.812
			c3.795,0,6.549,1.223,8.262,3.611c1.715,2.387,2.57,6.363,2.57,11.934c0,5.445-0.979,9.363-2.875,11.873
			c-1.898,2.508-5.203,3.732-9.916,3.732c-4.527,0-8.936-0.674-13.219-2.021v-41.555h3.855V118.836z M419.342,139.705v18.176
			c3,0.855,6.121,1.225,9.303,1.164c3.184,0,5.447-0.918,6.732-2.754c1.346-1.836,1.959-5.02,1.959-9.486
			c0-4.529-0.551-7.711-1.715-9.486c-1.102-1.773-3.184-2.691-6.119-2.691c-1.592,0-3.121,0.428-4.59,1.223
			S421.607,137.93,419.342,139.705z"/>
	</g>
	<g>
		<path d="M80.417,45.518c-0.796,0.979-2.876,2.999-7.161,2.999c-4.1,0-6.365-1.469-7.405-4.712
			c-0.428-1.285-0.428-3.856-0.428-5.386c0-4.223,0.061-7.65,0.061-11.567v-1.836h-3.488v-1.041
			c1.408-0.551,2.387-1.103,3.305-1.836c2.081-1.591,3.366-3.549,4.958-6.364h1.163v5.937h8.997v3.305h-8.997V38.91
			c0,4.162,0.734,6.547,4.712,6.547c1.836,0,3.06-0.611,3.794-0.979L80.417,45.518L80.417,45.518z M225.278,44.785
			c1.836,0,3.06-0.307,4.344-1.041V25.996c-0.428-0.428-2.02-1.774-5.262-1.774c-5.142,0-7.65,3.549-7.65,10.771
			C216.709,38.052,217.567,44.785,225.278,44.785L225.278,44.785z M226.196,8.002c1.59,0,3.672-0.306,6.241-0.734
			c1.47-0.245,2.388-0.489,2.876-0.673l0.49,0.245c-0.245,2.202-0.245,7.099-0.245,10.587v21.604c0,3.244,0.062,5.203,0.489,5.875
			c0.429,0.612,1.408,0.979,3.061,0.979v1.407c-1.652,0-3.673,0.185-5.691,0.552c-1.348,0.245-2.448,0.428-2.938,0.733l-0.733-0.244
			V46.13c-1.285,0.979-3.918,2.509-7.405,2.509c-7.283,0-11.996-5.019-11.996-12.853c0-2.631,0.49-5.08,1.408-7.16
			c2.202-4.773,6.854-7.527,12.668-7.527c2.142,0,4.039,0.245,5.141,0.489v-5.63c0-3.305-0.062-5.08-0.551-5.754
			c-0.367-0.551-0.918-0.795-2.876-0.979V8.002H226.196z M188.924,22.568c1.775,0.122,3.732-0.123,5.814-0.49
			c1.59-0.306,2.57-0.611,3.121-0.856l0.489,0.245v2.324c1.285-1.223,3.306-2.447,6.12-2.447c2.081,0,3.428,0.551,4.59,1.652v0.856
			l-2.203,4.101h-1.102c-0.674-1.225-2.02-2.387-4.406-2.387c-1.102,0-2.081,0.244-2.876,0.856v13.28
			c0,3.488,0.123,5.141,0.552,5.813c0.733,1.103,2.938,1.224,4.223,1.163v1.469c-1.836-0.123-4.957-0.244-7.223-0.244
			c-2.57,0-5.08,0.062-7.221,0.305v-1.346c1.469-0.062,2.325-0.49,2.876-1.102c0.796-0.918,0.856-3.122,0.856-7.589v-7.65
			c0-3.305,0-4.712-0.551-5.386c-0.428-0.611-1.408-0.918-3.121-0.979v-1.592h0.061V22.568z M173.135,24.037
			c-1.591,0-2.815,0.429-3.794,1.225c-2.142,1.773-3.182,5.018-3.182,9.669c0,1.774,0.306,10.71,6.854,10.71
			c1.53,0,2.815-0.428,3.733-1.225c2.142-1.774,3.245-5.019,3.245-9.668C179.989,32.972,179.622,24.037,173.135,24.037
			L173.135,24.037z M172.767,48.639c-8.078,0-12.913-5.019-12.913-13.464c0-6.548,3.549-14.198,13.464-14.198
			c8.079,0,12.913,5.019,12.913,13.464C186.231,40.99,182.743,48.639,172.767,48.639L172.767,48.639z M142.29,46.926
			c1.102,0,2.264-0.367,2.876-1.103c0.795-0.918,0.857-3.183,0.857-7.649V25.016h-3.427v-1.469c1.469-0.552,2.754-1.224,3.427-1.775
			c0-2.325,0.061-5.385,0.428-7.038c1.041-5.447,4.59-8.262,10.587-8.262c2.632,0,5.141,0.918,6.671,2.203l0.061,0.551l-2.631,3.672
			h-0.673c-0.918-2.203-2.264-3.427-4.59-3.427c-0.795,0-1.958,0.245-2.693,0.979c-1.163,1.162-1.346,2.875-1.346,6.242v5.141h5.936
			v3.305h-5.936v14.688c0,3.488,0.122,5.203,0.551,5.875c0.734,1.103,3.06,1.225,4.223,1.225v1.408
			c-1.958-0.123-4.957-0.245-7.222-0.245c-3.305,0-5.447,0.123-7.222,0.306v-1.469L142.29,46.926L142.29,46.926z M109.364,22.69
			c1.347,0.123,3.366-0.061,5.325-0.366c1.652-0.307,2.264-0.552,3.549-1.164l0.551,0.307v2.081c1.347-0.979,4.04-2.57,7.711-2.57
			c4.773,0,7.895,2.203,8.751,6.304c0.245,0.979,0.367,3.428,0.367,4.713v7.711c0,4.345,0.184,5.568,0.979,6.365
			c0.428,0.366,1.407,0.795,2.57,0.795v1.225c-1.714-0.061-4.712-0.245-6.548-0.245c-2.448,0-5.141,0.123-6.61,0.306v-1.224
			c1.285-0.123,2.203-0.552,2.693-0.979c0.795-0.795,0.918-2.326,0.979-5.568c0.062-0.979,0.062-3.061,0.062-4.59
			c0-1.959,0-4.041-0.245-6.06c-0.367-3.427-2.203-5.019-5.63-5.019c-2.387,0-3.855,0.552-4.957,1.103v13.892
			c0,4.346,0.184,5.569,1.041,6.365c0.428,0.367,1.408,0.797,2.57,0.797v1.224c-2.203-0.122-4.835-0.245-6.487-0.245
			c-3.549,0-4.651,0.061-6.671,0.306v-1.284c1.163,0,2.265-0.43,2.876-1.103c0.796-0.918,0.857-3.183,0.857-7.649v-7.589
			c0-3.305-0.061-4.651-0.551-5.386c-0.367-0.551-1.285-0.979-3.121-0.979v-1.47h-0.061V22.69z M37.822,46.988
			c0-2.692,0-4.896-0.184-7.65h1.591c0,1.714,0.49,2.938,1.224,3.794c1.102,1.284,3.733,2.021,6.12,2.021
			c5.019,0,7.405-1.897,7.405-5.998c0-3.488-2.142-4.957-5.202-6.978l-0.49-0.306l-3.182-2.143
			c-4.406-2.938-6.671-5.263-6.671-9.915c0-2.264,0.857-9.729,11.995-9.729c2.815,0,6.487,0.306,8.69,0.734
			c0,0.366-0.061,2.08-0.061,3.487c0,1.651,0,2.203,0.061,4.284h-1.346c-0.062-1.775-0.551-2.938-1.285-3.733
			c-1.102-1.04-3.427-1.53-5.937-1.53c-5.875,0-6.548,3-6.548,5.264c0,3.121,1.591,4.162,5.08,6.486l4.039,2.631
			c3.427,2.265,6.671,4.469,6.671,10.099c0,9.608-8.935,10.647-12.791,10.647C43.452,48.333,40.636,47.906,37.822,46.988
			L37.822,46.988z M97.124,34.502c-3.55,1.04-4.712,1.651-5.814,2.202c-1.53,0.734-2.326,2.326-2.326,4.162
			c0,1.408,0.49,3.855,3.978,3.855c1.163,0,2.754-0.245,4.162-1.225V34.502L97.124,34.502z M90.821,48.394
			c-7.222,0-7.711-5.447-7.711-7.099c0-1.958,0.489-5.447,5.08-7.099c4.712-1.715,5.752-1.959,8.996-2.938v-0.856
			c0-1.592,0-1.959-0.306-2.938c-0.612-1.836-2.448-3.06-4.834-3.06c-2.448,0-4.468,1.346-5.325,3.305l-1.346-0.795
			c0.857-3,3.855-5.998,9.058-5.998c3.672,0,6.12,1.041,7.589,3.305c1.102,1.775,1.224,4.284,1.224,6.854
			c0,2.266-0.062,4.836-0.123,6.854c-0.061,1.408-0.061,2.632-0.061,3.366c0,1.836,0.306,3.305,1.836,3.305
			c0.612,0,0.795-0.184,1.346-0.611l0.857,0.979c-1.408,1.836-2.938,3.305-5.508,3.305c-2.081,0-3.549-0.979-4.039-2.691
			C96.267,46.926,94.125,48.394,90.821,48.394L90.821,48.394z"/>
	</g>
	<g>
		<path d="M37.148-0.994v4.957c-6.854,0-11.628,1.53-14.198,4.468c-2.632,2.999-3.978,7.771-3.978,14.198v36.536
			c0,7.222-0.979,12.117-2.815,14.688c-1.897,2.57-5.875,4.528-11.873,5.875c6.242,2.081,10.343,4.344,12.301,6.793
			c1.958,2.447,2.999,6.793,3.121,13.035v47.002c0,6.486,1.285,11.199,3.978,14.197c2.631,3,7.344,4.529,14.198,4.529v4.957
			c-9.058,0.121-15.545-1.715-19.461-5.387c-3.917-3.73-5.875-9.791-5.875-18.115V97.537c0-2.447-0.184-4.406-0.551-5.875
			c-0.367-1.471-1.285-2.756-2.693-3.855c-1.407-1.102-2.57-1.836-3.488-2.326C4.896,85.053,2.999,84.318,0,83.155v-6.977
			c3.183-0.979,5.202-1.591,6.059-1.897c0.856-0.306,1.958-0.979,3.182-2.142c1.285-1.103,2.02-2.448,2.203-4.039
			s0.306-3.917,0.306-6.978V22.384c0-8.323,1.958-14.321,5.875-18.055C21.603,0.658,28.091-1.116,37.148-0.994z"/>
	</g>
	<g>
		<path d="M442.477,4.269v-4.958c9.059-0.122,15.545,1.714,19.584,5.447c3.979,3.733,5.996,9.792,5.996,18.054v38.74
			c0,5.63,0.613,9.18,1.898,10.525c1.283,1.408,4.527,2.938,9.67,4.529v6.977c-2.939,1.102-4.896,1.896-5.875,2.326
			c-0.98,0.428-2.145,1.162-3.488,2.203c-1.348,1.039-2.205,2.324-2.449,3.855c-0.307,1.529-0.49,3.549-0.49,5.996v49.205
			c0,8.322-2.02,14.32-5.996,18.115c-3.979,3.732-10.525,5.508-19.584,5.387v-4.957c6.854,0,11.629-1.531,14.32-4.529
			c2.693-3,4.039-7.771,4.039-14.199v-47c0-6.242,1.041-10.588,3.061-13.035s6.059-4.713,12.24-6.792
			c-5.875-1.348-9.793-3.306-11.689-5.876c-1.896-2.569-2.814-7.465-2.814-14.688V23.058c0-6.486-1.346-11.199-4.039-14.197
			C454.104,5.738,449.33,4.269,442.477,4.269z"/>
	</g>
</g>
</svg>
