<?xml version="1.0" encoding="utf-8"?>
<!-- Generator: Adobe Illustrator 15.0.0, SVG Export Plug-In . SVG Version: 6.00 Build 0)  -->
<!DOCTYPE svg PUBLIC "-//W3C//DTD SVG 1.1//EN" "http://www.w3.org/Graphics/SVG/1.1/DTD/svg11.dtd">
<svg version="1.1" id="Layer_1" xmlns="http://www.w3.org/2000/svg" xmlns:xlink="http://www.w3.org/1999/xlink" x="0px" y="0px"
	 width="479.625px" height="171.678px" viewBox="63.281 314.904 479.625 171.678"
	 enable-background="new 63.281 314.904 479.625 171.678" xml:space="preserve">
<g>
	<g>
		<path fill="#8C191C" d="M129.071,414.85l0.49,2.999c-3.183,0.856-7.222,1.285-12.118,1.285c-5.937,0-10.159-1.652-12.546-4.896
			c-2.387-3.243-3.611-8.935-3.611-16.952c0-8.017,1.224-13.709,3.611-16.952c2.387-3.244,6.609-4.896,12.546-4.896
			c4.467,0,8.201,0.367,11.261,1.163l-0.49,2.999c-3.121-0.367-6.671-0.551-10.771-0.551c-4.468,0-7.589,1.346-9.364,3.978
			c-1.775,2.632-2.631,7.405-2.631,14.26s0.856,11.628,2.631,14.26s4.896,3.978,9.364,3.978
			C122.094,415.522,126.011,415.278,129.071,414.85z"/>
		<path fill="#8C191C" d="M138.679,391.532c2.081-2.325,5.569-3.549,10.526-3.549s8.507,1.163,10.526,3.549
			c2.02,2.326,3.06,6.365,3.06,12.118c0,5.691-1.041,9.73-3.06,12.056c-2.02,2.326-5.569,3.489-10.526,3.489
			s-8.507-1.163-10.526-3.55c-2.081-2.326-3.06-6.365-3.06-12.057C135.558,397.897,136.599,393.858,138.679,391.532z
			 M156.672,393.98c-1.408-1.775-3.855-2.632-7.466-2.632s-6.059,0.857-7.466,2.632s-2.081,4.957-2.081,9.608
			s0.673,7.833,2.081,9.608c1.408,1.774,3.855,2.632,7.466,2.632s6.059-0.857,7.466-2.632s2.081-4.957,2.081-9.608
			S158.08,395.755,156.672,393.98z"/>
		<path fill="#8C191C" d="M174.787,388.778l0.245,4.896c4.345-3.794,8.506-5.691,12.484-5.691c4.223,0,6.732,1.836,7.528,5.569
			c4.345-3.733,8.445-5.569,12.362-5.569c2.509,0,4.468,0.673,5.814,2.081c1.347,1.408,2.02,3.427,2.02,6.059v22.277h-3.855v-21.236
			c-0.061-2.02-0.49-3.55-1.285-4.407c-0.857-0.918-2.142-1.346-3.978-1.346c-1.652,0-3.183,0.367-4.712,1.163
			c-1.53,0.734-3.55,2.081-6.12,4.04v21.909h-3.733v-21.236c0-2.02-0.429-3.55-1.285-4.406c-0.857-0.857-2.204-1.347-3.978-1.347
			c-1.591,0-3.122,0.367-4.651,1.163c-1.53,0.734-3.611,2.081-6.12,3.978v21.971h-3.855v-29.62h3.121V388.778z"/>
		<path fill="#8C191C" d="M228.459,388.778l0.367,4.896c3.794-3.794,7.895-5.691,12.24-5.691c3.672,0,6.304,1.285,7.956,3.794
			c1.652,2.509,2.448,6.487,2.448,11.934c0,5.569-0.857,9.548-2.57,11.935c-1.713,2.325-4.529,3.549-8.446,3.549
			c-3.917,0-7.711-1.04-11.444-3.121c0.184,1.652,0.184,3.611,0.123,5.876v8.935h-3.855v-42.105H228.459z M229.133,396.489v17.014
			c4.529,1.469,8.017,2.203,10.465,2.203c2.876,0,4.957-0.856,6.12-2.57c1.163-1.713,1.775-4.896,1.775-9.485
			c0-4.468-0.551-7.65-1.713-9.486c-1.163-1.836-3.06-2.754-5.814-2.754c-1.652,0-3.244,0.367-4.896,1.224
			C233.478,393.43,231.458,394.715,229.133,396.489z"/>
		<path fill="#8C191C" d="M284.702,388.778v29.621h-3.06l-0.306-4.651c-4.59,3.61-8.935,5.386-13.158,5.386
			c-5.324,0-8.017-2.693-8.017-8.079v-22.276h3.855v21.236c0,2.02,0.429,3.488,1.285,4.406c0.857,0.918,2.265,1.347,4.162,1.347
			c1.653,0,3.366-0.367,5.019-1.102s3.794-2.02,6.365-3.794v-22.094H284.702L284.702,388.778z"/>
		<path fill="#8C191C" d="M310.101,415.339l0.489,2.938c-2.02,0.429-4.101,0.612-6.181,0.612c-4.896,0-7.344-2.448-7.344-7.405
			v-19.645h-5.386v-2.754l5.386-0.306v-8.996h3.855v8.996h10.037v3.06H300.92v19.216c0,2.877,1.469,4.284,4.345,4.284H310.101
			L310.101,415.339z"/>
		<path fill="#8C191C" d="M317.566,392.206l-0.367-2.876c5.937-0.918,10.649-1.346,14.26-1.346c3.183,0,5.569,0.734,7.16,2.142
			c1.592,1.407,2.326,3.733,2.326,7.038v21.297h-3.061l-0.489-5.201c-1.469,1.469-3.366,2.754-5.691,3.978
			c-2.325,1.163-4.773,1.714-7.222,1.714c-2.632,0-4.651-0.674-6.182-2.081c-1.529-1.407-2.264-3.366-2.264-5.937v-3.427
			c0-2.265,0.673-4.039,2.02-5.324c1.346-1.285,3.243-1.897,5.753-1.897h13.28v-3.121c0-1.958-0.49-3.428-1.347-4.346
			c-0.918-0.918-2.57-1.407-4.957-1.407C327.236,391.349,322.83,391.655,317.566,392.206z M319.893,407.934v2.57
			c0,3.306,1.714,4.958,5.202,4.958c1.774,0.061,3.794-0.429,5.997-1.347s4.162-2.142,5.937-3.672v-7.1H324.36
			C321.423,403.467,319.893,404.996,319.893,407.934z"/>
		<path fill="#8C191C" d="M366.037,415.339l0.489,2.938c-2.02,0.429-4.1,0.612-6.181,0.612c-4.896,0-7.344-2.448-7.344-7.405
			v-19.645h-5.386v-2.754l5.386-0.306v-8.996h3.855v8.996h10.036v3.06h-10.036v19.216c0,2.877,1.469,4.284,4.345,4.284H366.037
			L366.037,415.339z"/>
		<path fill="#8C191C" d="M374.85,376.293h1.775c0.856,0,1.285,0.429,1.285,1.285v3.55c0,0.857-0.429,1.285-1.285,1.285h-1.775
			c-0.856,0-1.285-0.428-1.285-1.285v-3.55C373.564,376.722,373.993,376.293,374.85,376.293z M377.665,418.399h-3.855v-29.621h3.855
			V418.399z"/>
		<path fill="#8C191C" d="M389.783,391.532c2.08-2.325,5.568-3.549,10.526-3.549c4.957,0,8.507,1.163,10.526,3.549
			c2.02,2.326,3.06,6.365,3.06,12.118c0,5.691-1.04,9.73-3.06,12.056c-2.02,2.326-5.569,3.489-10.526,3.489
			c-4.958,0-8.507-1.163-10.526-3.55c-2.081-2.326-3.061-6.365-3.061-12.057C386.661,397.897,387.702,393.858,389.783,391.532z
			 M407.775,393.98c-1.407-1.775-3.855-2.632-7.466-2.632c-3.611,0-6.06,0.857-7.467,2.632s-2.081,4.957-2.081,9.608
			s0.674,7.833,2.081,9.608c1.407,1.774,3.855,2.632,7.467,2.632c3.61,0,6.059-0.857,7.466-2.632
			c1.408-1.774,2.081-4.957,2.081-9.608S409.184,395.755,407.775,393.98z"/>
		<path fill="#8C191C" d="M425.952,388.778l0.306,4.896c4.957-3.794,9.486-5.691,13.709-5.691c5.324,0,7.956,2.693,7.956,8.139
			v22.277h-3.855v-21.236c0-2.081-0.367-3.55-1.225-4.468c-0.795-0.918-2.08-1.347-3.916-1.347c-1.775,0-3.611,0.429-5.447,1.224
			s-4.101,2.142-6.854,3.917v21.91h-3.917v-29.621H425.952L425.952,388.778z"/>
		<path fill="#8C191C" d="M457.96,392.206l-0.367-2.876c5.937-0.918,10.648-1.346,14.259-1.346c3.183,0,5.569,0.734,7.161,2.142
			c1.591,1.407,2.325,3.733,2.325,7.038v21.297h-3.06l-0.49-5.201c-1.469,1.469-3.365,2.754-5.753,3.978
			c-2.325,1.163-4.773,1.714-7.221,1.714c-2.632,0-4.651-0.674-6.182-2.081s-2.265-3.366-2.265-5.937v-3.427
			c0-2.265,0.674-4.039,2.02-5.324c1.347-1.285,3.244-1.897,5.753-1.897h13.28v-3.121c0-1.958-0.489-3.428-1.346-4.346
			c-0.918-0.918-2.571-1.407-4.896-1.407C467.629,391.349,463.223,391.655,457.96,392.206z M460.285,407.934v2.57
			c0,3.306,1.714,4.958,5.202,4.958c1.774,0.061,3.794-0.429,6.059-1.347c2.203-0.918,4.162-2.142,5.875-3.672v-7.1h-12.668
			C461.815,403.467,460.285,404.996,460.285,407.934z"/>
		<path fill="#8C191C" d="M495.292,375.559v35.497c0,2.876,1.469,4.283,4.345,4.283h3.121l0.429,2.938
			c-1.102,0.429-2.754,0.612-4.896,0.612c-2.142,0-3.794-0.612-5.019-1.836c-1.224-1.224-1.836-2.999-1.836-5.202v-36.23h3.856
			V375.559z"/>
	</g>
	<g>
		<path fill="#8C191C" d="M114.016,435.352v34.027c0,5.813-2.632,8.69-7.956,8.69c-1.652,0-3.305-0.184-5.019-0.612l0.429-2.815
			h3.244c3.488,0,5.263-1.713,5.263-5.141v-34.149H114.016L114.016,435.352z"/>
		<path fill="#8C191C" d="M126.255,450.651c2.081-2.325,5.569-3.55,10.527-3.55c4.957,0,8.506,1.163,10.526,3.55
			c2.02,2.326,3.06,6.365,3.06,12.118c0,5.691-1.04,9.73-3.06,12.056c-2.02,2.326-5.569,3.489-10.526,3.489
			c-4.958,0-8.507-1.163-10.527-3.55c-2.081-2.326-3.06-6.365-3.06-12.057C123.134,457.017,124.175,453.038,126.255,450.651z
			 M144.249,453.161c-1.408-1.775-3.856-2.632-7.466-2.632c-3.611,0-6.059,0.856-7.467,2.632c-1.407,1.774-2.081,4.957-2.081,9.608
			c0,4.65,0.673,7.833,2.081,9.608c1.408,1.774,3.856,2.631,7.467,2.631c3.61,0,6.059-0.856,7.466-2.631
			c1.407-1.775,2.081-4.958,2.081-9.608C146.329,458.118,145.656,454.874,144.249,453.161z"/>
		<path fill="#8C191C" d="M183.539,447.959v29.621h-3.06l-0.306-4.651c-4.59,3.61-8.935,5.386-13.158,5.386
			c-5.324,0-8.017-2.693-8.017-8.079v-22.276h3.855v21.236c0,2.02,0.429,3.488,1.285,4.406c0.857,0.918,2.265,1.347,4.162,1.347
			c1.652,0,3.366-0.367,5.019-1.163c1.652-0.734,3.794-2.02,6.365-3.733v-22.093H183.539z"/>
		<path fill="#8C191C" d="M211.691,447.163l-0.49,3.672h-1.469c-1.713,0-3.427,0.367-5.202,1.102s-3.978,1.897-6.732,3.55v22.154
			h-3.917V448.02h2.999l0.428,4.896c4.835-3.795,9.241-5.691,13.097-5.691h1.285V447.163z"/>
		<path fill="#8C191C" d="M221.238,447.959l0.306,4.896c4.957-3.794,9.486-5.691,13.709-5.691c5.324,0,7.956,2.693,7.956,8.14
			v22.277h-3.856v-21.237c0-2.08-0.367-3.549-1.163-4.467s-2.142-1.347-3.978-1.347c-1.775,0-3.611,0.429-5.447,1.224
			c-1.836,0.796-4.101,2.143-6.854,3.917v21.91h-3.917v-29.621H221.238L221.238,447.959z"/>
		<path fill="#8C191C" d="M253.246,451.386l-0.367-2.876c5.937-0.918,10.649-1.347,14.26-1.347c3.182,0,5.569,0.734,7.099,2.142
			c1.591,1.408,2.387,3.733,2.387,7.038v21.298h-3.06l-0.49-5.202c-1.469,1.469-3.366,2.754-5.752,3.979
			c-2.326,1.163-4.774,1.714-7.283,1.714c-2.631,0-4.651-0.674-6.181-2.081c-1.53-1.408-2.264-3.366-2.264-5.937v-3.428
			c0-2.264,0.673-4.039,2.02-5.324s3.244-1.896,5.753-1.896h13.28v-3.122c0-1.958-0.49-3.427-1.346-4.345
			c-0.918-0.918-2.571-1.408-4.958-1.408C262.915,450.529,258.509,450.774,253.246,451.386z M255.571,467.114v2.57
			c0,3.305,1.713,4.957,5.202,4.957c1.774,0.062,3.794-0.428,6.059-1.346c2.203-0.918,4.162-2.143,5.875-3.672v-7.1h-12.668
			C257.101,462.646,255.571,464.177,255.571,467.114z"/>
		<path fill="#8C191C" d="M290.578,434.739v35.496c0,2.877,1.469,4.284,4.345,4.284h3.121l0.429,2.938
			c-1.102,0.429-2.754,0.612-4.896,0.612c-2.142,0-3.794-0.612-5.018-1.836c-1.224-1.225-1.836-2.999-1.836-5.202v-36.23h3.855
			V434.739z"/>
		<path fill="#8C191C" d="M305.51,435.474h1.775c0.856,0,1.285,0.429,1.285,1.285v3.55c0,0.857-0.429,1.285-1.285,1.285h-1.775
			c-0.856,0-1.285-0.428-1.285-1.285v-3.55C304.225,435.902,304.654,435.474,305.51,435.474z M308.325,477.58h-3.855v-29.621h3.855
			V477.58z"/>
		<path fill="#8C191C" d="M332.622,465.033l-9.058-1.713c-2.325-0.429-3.979-1.285-5.019-2.57c-1.04-1.225-1.53-3.061-1.53-5.509
			c0-3.365,0.857-5.508,2.51-6.609c1.713-1.04,4.651-1.53,8.874-1.53c4.468,0.062,8.507,0.367,12.117,0.918l-0.367,2.815
			c-4.896-0.244-8.629-0.367-11.261-0.367c-3.243-0.061-5.446,0.184-6.487,0.734c-1.04,0.49-1.591,1.836-1.591,3.979
			c0,1.652,0.367,2.815,1.04,3.488c0.674,0.673,1.836,1.163,3.488,1.469l9.119,1.714c2.387,0.489,4.101,1.346,5.202,2.57
			c1.102,1.224,1.652,2.998,1.652,5.386c0,3.488-0.918,5.752-2.815,6.793c-1.836,1.04-5.019,1.591-9.485,1.591
			c-4.04,0-7.834-0.244-11.322-0.795l0.306-2.877c3.244,0.306,6.671,0.429,10.343,0.367c3.611-0.062,6.059-0.367,7.283-1.04
			c1.224-0.612,1.896-1.959,1.896-4.101c0-1.592-0.367-2.693-1.162-3.366C335.56,465.829,334.336,465.34,332.622,465.033z"/>
		<path fill="#8C191C" d="M352.879,447.959l0.245,4.896c4.345-3.794,8.507-5.691,12.484-5.691c4.224,0,6.732,1.836,7.528,5.569
			c4.345-3.733,8.445-5.569,12.362-5.569c2.509,0,4.468,0.673,5.813,2.081c1.347,1.407,2.02,3.427,2.02,6.059v22.277h-3.855v-21.237
			c-0.061-2.02-0.489-3.549-1.346-4.406c-0.857-0.918-2.143-1.346-3.979-1.346c-1.652,0-3.183,0.367-4.712,1.102
			c-1.53,0.734-3.55,2.08-6.12,4.039v21.909h-3.672v-21.236c0-2.02-0.429-3.55-1.285-4.406c-0.857-0.918-2.204-1.347-3.979-1.347
			c-1.591,0-3.183,0.367-4.712,1.102c-1.53,0.734-3.55,2.081-6.12,3.979v21.971h-3.855v-29.621h3.182V447.959z"/>
	</g>
	<g>
		<path fill="#8C191C" d="M418.669,435.352v34.395c0,2.999,1.469,4.468,4.406,4.468h15.729l0.123,3.06
			c-4.346,0.245-9.854,0.367-16.524,0.367c-2.57,0-4.528-0.673-5.813-2.02c-1.286-1.347-1.959-3.121-1.959-5.324v-34.945H418.669z"
			/>
		<path fill="#8C191C" d="M445.475,451.386l-0.367-2.876c5.937-0.918,10.649-1.347,14.26-1.347c3.183,0,5.569,0.734,7.16,2.142
			c1.592,1.408,2.326,3.733,2.326,7.038v21.298h-3.061l-0.489-5.202c-1.469,1.469-3.366,2.754-5.691,3.979
			c-2.326,1.163-4.773,1.714-7.283,1.714c-2.632,0-4.651-0.674-6.181-2.081c-1.53-1.408-2.265-3.366-2.265-5.937v-3.428
			c0-2.264,0.673-4.039,2.02-5.324s3.243-1.896,5.753-1.896h13.28v-3.122c0-1.958-0.489-3.427-1.347-4.345
			c-0.918-0.918-2.57-1.408-4.957-1.408C455.145,450.529,450.738,450.774,445.475,451.386z M447.801,467.114v2.57
			c0,3.305,1.713,4.957,5.201,4.957c1.775,0.062,3.795-0.428,5.998-1.346s4.161-2.143,5.937-3.672v-7.1h-12.669
			C449.27,462.646,447.801,464.177,447.801,467.114z"/>
		<path fill="#8C191C" d="M482.623,434.739v11.873c0,2.876-0.122,4.957-0.429,6.365c3.979-3.856,7.896-5.814,11.751-5.814
			c3.794,0,6.548,1.224,8.262,3.611c1.714,2.387,2.57,6.364,2.57,11.934c0,5.446-0.979,9.363-2.876,11.873
			c-1.897,2.509-5.202,3.733-9.915,3.733c-4.528,0-8.935-0.674-13.219-2.021v-41.555H482.623z M482.623,455.608v18.177
			c2.999,0.856,6.12,1.224,9.303,1.163c3.183,0,5.446-0.918,6.731-2.754c1.347-1.836,1.959-5.019,1.959-9.486
			c0-4.528-0.551-7.711-1.714-9.486c-1.102-1.774-3.183-2.692-6.12-2.692c-1.591,0-3.121,0.429-4.59,1.224
			C486.724,452.549,484.888,453.834,482.623,455.608z"/>
	</g>
	<g>
		<path d="M143.698,361.422c-0.796,0.979-2.876,2.999-7.161,2.999c-4.1,0-6.365-1.469-7.405-4.712
			c-0.428-1.285-0.428-3.856-0.428-5.386c0-4.223,0.061-7.65,0.061-11.567v-1.836h-3.488v-1.041
			c1.408-0.551,2.387-1.102,3.305-1.836c2.081-1.591,3.366-3.549,4.958-6.365h1.163v5.937h8.997v3.305h-8.997v13.893
			c0,4.162,0.734,6.548,4.712,6.548c1.836,0,3.06-0.612,3.794-0.979L143.698,361.422L143.698,361.422z M288.558,360.688
			c1.836,0,3.06-0.306,4.345-1.04v-17.748c-0.429-0.429-2.02-1.775-5.263-1.775c-5.141,0-7.65,3.549-7.65,10.771
			C279.99,353.956,280.847,360.688,288.558,360.688L288.558,360.688z M289.476,323.906c1.591,0,3.672-0.306,6.242-0.734
			c1.469-0.245,2.387-0.489,2.876-0.673l0.49,0.245c-0.245,2.203-0.245,7.099-0.245,10.587v21.604c0,3.244,0.061,5.202,0.489,5.875
			c0.429,0.612,1.408,0.979,3.06,0.979v1.408c-1.652,0-3.672,0.184-5.691,0.551c-1.347,0.245-2.448,0.428-2.938,0.734l-0.734-0.245
			v-2.203c-1.285,0.979-3.917,2.509-7.405,2.509c-7.283,0-11.996-5.018-11.996-12.852c0-2.632,0.49-5.08,1.408-7.161
			c2.203-4.773,6.854-7.527,12.668-7.527c2.142,0,4.039,0.245,5.141,0.489v-5.63c0-3.305-0.061-5.08-0.551-5.753
			c-0.367-0.551-0.918-0.795-2.876-0.979v-1.224H289.476z M252.205,338.472c1.775,0.122,3.733-0.123,5.814-0.49
			c1.591-0.306,2.571-0.612,3.122-0.857l0.489,0.245v2.325c1.285-1.224,3.305-2.448,6.12-2.448c2.081,0,3.427,0.551,4.59,1.652
			v0.857l-2.203,4.1h-1.102c-0.673-1.224-2.02-2.387-4.406-2.387c-1.102,0-2.081,0.245-2.876,0.857v13.28
			c0,3.488,0.123,5.141,0.551,5.814c0.734,1.102,2.938,1.224,4.223,1.163v1.469c-1.836-0.123-4.957-0.245-7.222-0.245
			c-2.57,0-5.08,0.062-7.221,0.306v-1.346c1.469-0.062,2.325-0.49,2.876-1.102c0.796-0.918,0.857-3.122,0.857-7.589v-7.65
			c0-3.305,0-4.712-0.551-5.386c-0.428-0.612-1.408-0.918-3.121-0.979v-1.591H252.205z M236.416,339.941
			c-1.591,0-2.815,0.428-3.794,1.224c-2.142,1.774-3.182,5.018-3.182,9.669c0,1.775,0.306,10.71,6.854,10.71
			c1.53,0,2.815-0.428,3.733-1.224c2.142-1.775,3.244-5.019,3.244-9.669C243.27,348.876,242.903,339.941,236.416,339.941
			L236.416,339.941z M236.048,364.543c-8.078,0-12.913-5.018-12.913-13.464c0-6.548,3.549-14.198,13.464-14.198
			c8.079,0,12.913,5.019,12.913,13.464C249.512,356.893,246.024,364.543,236.048,364.543L236.048,364.543z M205.571,362.83
			c1.102,0,2.264-0.367,2.876-1.102c0.795-0.918,0.857-3.183,0.857-7.65V340.92h-3.427v-1.469c1.469-0.551,2.754-1.224,3.427-1.775
			c0-2.326,0.061-5.385,0.428-7.038c1.041-5.447,4.59-8.262,10.587-8.262c2.632,0,5.141,0.918,6.671,2.203l0.061,0.551l-2.631,3.672
			h-0.673c-0.918-2.203-2.264-3.427-4.59-3.427c-0.795,0-1.958,0.245-2.693,0.979c-1.163,1.163-1.346,2.876-1.346,6.242v5.141h5.936
			v3.305h-5.936v14.688c0,3.488,0.122,5.202,0.551,5.875c0.734,1.102,3.06,1.224,4.223,1.224v1.408
			c-1.958-0.123-4.957-0.245-7.222-0.245c-3.305,0-5.447,0.123-7.222,0.306v-1.469H205.571z M172.645,338.594
			c1.347,0.123,3.366-0.061,5.325-0.367c1.652-0.306,2.264-0.551,3.549-1.163l0.551,0.306v2.081c1.347-0.979,4.04-2.57,7.711-2.57
			c4.773,0,7.895,2.203,8.751,6.304c0.245,0.979,0.367,3.427,0.367,4.712v7.711c0,4.345,0.184,5.569,0.979,6.365
			c0.428,0.367,1.407,0.796,2.57,0.796v1.224c-1.714-0.061-4.712-0.245-6.548-0.245c-2.448,0-5.141,0.123-6.61,0.306v-1.224
			c1.285-0.123,2.203-0.551,2.693-0.979c0.795-0.796,0.918-2.326,0.979-5.569c0.062-0.979,0.062-3.06,0.062-4.59
			c0-1.958,0-4.04-0.245-6.059c-0.367-3.427-2.203-5.018-5.63-5.018c-2.387,0-3.855,0.551-4.957,1.102v13.892
			c0,4.345,0.184,5.569,1.041,6.365c0.428,0.367,1.408,0.796,2.57,0.796v1.224c-2.203-0.122-4.835-0.245-6.487-0.245
			c-3.549,0-4.651,0.061-6.671,0.306v-1.285c1.163,0,2.265-0.429,2.876-1.102c0.796-0.918,0.857-3.183,0.857-7.65v-7.588
			c0-3.305-0.061-4.651-0.551-5.386c-0.367-0.551-1.285-0.979-3.121-0.979v-1.469H172.645z M101.103,362.891
			c0-2.692,0-4.896-0.184-7.65h1.591c0,1.714,0.49,2.938,1.224,3.794c1.102,1.285,3.733,2.02,6.12,2.02
			c5.019,0,7.405-1.897,7.405-5.998c0-3.488-2.142-4.957-5.202-6.977l-0.49-0.306l-3.182-2.142
			c-4.406-2.938-6.671-5.263-6.671-9.915c0-2.264,0.857-9.73,11.995-9.73c2.815,0,6.487,0.306,8.69,0.734
			c0,0.367-0.061,2.081-0.061,3.488c0,1.652,0,2.203,0.061,4.284h-1.346c-0.062-1.775-0.551-2.938-1.285-3.733
			c-1.102-1.041-3.427-1.53-5.937-1.53c-5.875,0-6.548,2.999-6.548,5.263c0,3.121,1.591,4.162,5.08,6.487l4.039,2.631
			c3.427,2.264,6.671,4.468,6.671,10.098c0,9.608-8.935,10.648-12.791,10.648C106.733,364.237,103.917,363.809,101.103,362.891
			L101.103,362.891z M160.405,350.406c-3.55,1.04-4.712,1.652-5.814,2.203c-1.53,0.734-2.326,2.325-2.326,4.162
			c0,1.407,0.49,3.855,3.978,3.855c1.163,0,2.754-0.245,4.162-1.224V350.406L160.405,350.406z M154.102,364.298
			c-7.222,0-7.711-5.447-7.711-7.099c0-1.958,0.489-5.447,5.08-7.099c4.712-1.714,5.752-1.958,8.996-2.938v-0.857
			c0-1.591,0-1.958-0.306-2.938c-0.612-1.836-2.448-3.06-4.834-3.06c-2.448,0-4.468,1.346-5.325,3.305l-1.346-0.795
			c0.857-2.999,3.855-5.998,9.058-5.998c3.672,0,6.12,1.041,7.589,3.305c1.102,1.775,1.224,4.284,1.224,6.854
			c0,2.265-0.062,4.835-0.123,6.854c-0.061,1.408-0.061,2.632-0.061,3.366c0,1.836,0.306,3.305,1.836,3.305
			c0.612,0,0.795-0.184,1.346-0.612l0.857,0.979c-1.408,1.836-2.938,3.305-5.508,3.305c-2.081,0-3.549-0.979-4.039-2.692
			C159.548,362.83,157.406,364.298,154.102,364.298L154.102,364.298z"/>
	</g>
	<g>
		<path d="M100.429,314.91v4.957c-6.854,0-11.628,1.53-14.198,4.468c-2.632,2.999-3.978,7.772-3.978,14.198v36.536
			c0,7.222-0.979,12.118-2.815,14.688c-1.897,2.57-5.875,4.528-11.873,5.875c6.242,2.081,10.343,4.345,12.301,6.793
			c1.958,2.448,2.999,6.793,3.121,13.036v47.001c0,6.487,1.285,11.2,3.978,14.198c2.631,2.999,7.344,4.529,14.198,4.529v4.957
			c-9.058,0.122-15.545-1.714-19.461-5.386c-3.917-3.732-5.875-9.792-5.875-18.115v-49.204c0-2.448-0.184-4.407-0.551-5.876
			s-1.285-2.754-2.693-3.855c-1.407-1.102-2.57-1.836-3.488-2.325c-0.918-0.429-2.815-1.163-5.814-2.326v-6.977
			c3.183-0.979,5.202-1.591,6.059-1.897c0.856-0.306,1.958-0.979,3.182-2.142c1.285-1.102,2.02-2.448,2.203-4.039
			s0.306-3.917,0.306-6.977v-38.739c0-8.323,1.958-14.321,5.875-18.054C84.884,316.562,91.372,314.788,100.429,314.91z"/>
	</g>
	<g>
		<path d="M505.757,320.173v-4.958c9.058-0.122,15.545,1.714,19.584,5.447c3.978,3.733,5.997,9.792,5.997,18.054v38.74
			c0,5.63,0.612,9.18,1.897,10.526c1.285,1.408,4.529,2.938,9.67,4.529v6.977c-2.938,1.102-4.896,1.897-5.875,2.326
			c-0.979,0.428-2.143,1.162-3.488,2.203c-1.347,1.04-2.204,2.325-2.448,3.855c-0.307,1.529-0.49,3.549-0.49,5.997v49.205
			c0,8.323-2.02,14.32-5.997,18.115c-3.978,3.733-10.526,5.508-19.584,5.386v-4.957c6.854,0,11.628-1.53,14.32-4.529
			c2.693-2.999,4.04-7.772,4.04-14.198V415.89c0-6.242,1.04-10.587,3.06-13.035s6.059-4.713,12.24-6.793
			c-5.875-1.347-9.792-3.305-11.689-5.875s-2.815-7.466-2.815-14.688v-36.537c0-6.487-1.346-11.2-4.039-14.198
			C517.385,321.642,512.611,320.173,505.757,320.173z"/>
	</g>
</g>
</svg>
