<?xml version="1.0" encoding="utf-8"?>
<!-- Generator: Adobe Illustrator 19.0.1, SVG Export Plug-In . SVG Version: 6.00 Build 0)  -->
<svg version="1.1" id="Layer_1" xmlns="http://www.w3.org/2000/svg" xmlns:xlink="http://www.w3.org/1999/xlink" x="0px" y="0px"
	 viewBox="0 0 1000 500" style="enable-background:new 0 0 1000 500;" xml:space="preserve">
<style type="text/css">
	.st0{fill:#8C191C;}
</style>
<g>
	<path class="st0" d="M299.9,259.7l0.4,2.5c-2.6,0.7-5.9,1-9.9,1c-4.9,0-8.3-1.3-10.2-4c-2-2.7-2.9-7.3-2.9-13.9
		c0-6.6,1-11.2,2.9-13.9c2-2.7,5.4-4,10.2-4c3.6,0,6.7,0.3,9.2,1l-0.4,2.4c-2.5-0.3-5.5-0.4-8.8-0.4c-3.7,0-6.2,1.1-7.6,3.2
		c-1.4,2.2-2.1,6-2.1,11.6s0.7,9.5,2.1,11.6c1.4,2.2,4,3.2,7.6,3.2C294.2,260.3,297.4,260.1,299.9,259.7z"/>
	<path class="st0" d="M307.7,240.6c1.7-1.9,4.6-2.9,8.6-2.9c4.1,0,6.9,1,8.6,2.9c1.7,1.9,2.5,5.2,2.5,9.9c0,4.7-0.8,8-2.5,9.9
		c-1.7,1.9-4.5,2.8-8.6,2.8c-4.1,0-6.9-1-8.6-2.9c-1.7-1.9-2.5-5.2-2.5-9.8C305.2,245.8,306,242.6,307.7,240.6z M322.4,242.7
		c-1.1-1.4-3.2-2.1-6.1-2.1c-2.9,0-5,0.7-6.1,2.1c-1.1,1.4-1.7,4.1-1.7,7.9c0,3.8,0.6,6.4,1.7,7.9c1.1,1.4,3.2,2.1,6.1,2.1
		c2.9,0,5-0.7,6.1-2.1c1.1-1.4,1.7-4,1.7-7.9C324.1,246.7,323.6,244.1,322.4,242.7z"/>
	<path class="st0" d="M337.2,238.4l0.2,4c3.6-3.1,7-4.6,10.2-4.6c3.4,0,5.5,1.5,6.1,4.6c3.5-3,6.9-4.6,10.1-4.6
		c2.1,0,3.6,0.6,4.8,1.7c1.1,1.1,1.6,2.8,1.6,4.9v18.2h-3.1v-17.4c0-1.7-0.4-2.9-1.1-3.6c-0.7-0.8-1.8-1.1-3.2-1.1
		c-1.3,0-2.6,0.3-3.9,0.9c-1.2,0.6-2.9,1.7-5,3.3v17.9h-3v-17.4c0-1.7-0.4-2.9-1-3.6c-0.7-0.8-1.8-1.1-3.2-1.1
		c-1.3,0-2.6,0.3-3.8,0.9c-1.2,0.6-2.9,1.7-5,3.2v18h-3.1v-24.2H337.2z"/>
	<path class="st0" d="M381.1,238.4l0.3,4c3.1-3.1,6.4-4.6,10-4.6c3,0,5.2,1,6.5,3.1c1.3,2.1,2,5.3,2,9.8c0,4.6-0.7,7.8-2.1,9.7
		c-1.4,1.9-3.7,2.9-6.9,2.9c-3.2,0-6.3-0.8-9.4-2.5c0.1,1.4,0.2,3,0.1,4.8v7.4h-3.1v-34.4H381.1z M381.6,244.7v13.9
		c3.7,1.2,6.5,1.8,8.5,1.8c2.4,0,4-0.7,5-2.1c1-1.4,1.5-4,1.5-7.7c0-3.7-0.5-6.2-1.4-7.8c-0.9-1.5-2.5-2.2-4.8-2.2
		c-1.3,0-2.7,0.3-4,1C385.2,242.2,383.5,243.2,381.6,244.7z"/>
	<path class="st0" d="M427,238.4v24.2h-2.5l-0.2-3.8c-3.7,2.9-7.3,4.4-10.8,4.4c-4.4,0-6.6-2.2-6.6-6.6v-18.2h3.2v17.4
		c0,1.7,0.3,2.9,1,3.6s1.8,1.1,3.4,1.1c1.4,0,2.7-0.3,4.1-0.9c1.4-0.6,3.1-1.6,5.2-3.1v-18.1H427z"/>
	<path class="st0" d="M447.8,260.1l0.4,2.4c-1.7,0.3-3.4,0.5-5,0.5c-4,0-6-2-6-6v-16.1h-4.4v-2.2l4.4-0.2v-7.3h3.1v7.3h8.2v2.5h-8.2
		v15.7c0,2.3,1.2,3.5,3.5,3.5H447.8z"/>
	<path class="st0" d="M453.9,241.2l-0.3-2.4c4.8-0.7,8.7-1.1,11.6-1.1c2.6,0,4.5,0.6,5.8,1.7c1.3,1.1,1.9,3.1,1.9,5.7v17.4h-2.5
		l-0.4-4.2c-1.2,1.2-2.8,2.3-4.7,3.2c-1.9,1-3.9,1.4-5.9,1.4c-2.1,0-3.8-0.6-5-1.7c-1.2-1.1-1.9-2.8-1.9-4.9v-2.8
		c0-1.9,0.5-3.3,1.6-4.4s2.7-1.6,4.7-1.6h10.8v-2.5c0-1.6-0.4-2.8-1.1-3.6c-0.8-0.8-2.1-1.1-4-1.1
		C461.8,240.5,458.2,240.7,453.9,241.2z M455.8,254.1v2.1c0,2.7,1.4,4,4.2,4c1.5,0,3.1-0.3,4.9-1.1c1.8-0.8,3.4-1.8,4.8-3v-5.8
		h-10.3C457,250.4,455.8,251.7,455.8,254.1z"/>
	<path class="st0" d="M493.5,260.1l0.4,2.4c-1.7,0.3-3.4,0.5-5,0.5c-4,0-6-2-6-6v-16.1h-4.4v-2.2l4.4-0.2v-7.3h3.1v7.3h8.2v2.5H486
		v15.7c0,2.3,1.2,3.5,3.5,3.5H493.5z"/>
	<path class="st0" d="M500.7,228.2h1.5c0.7,0,1,0.4,1,1v2.9c0,0.7-0.3,1.1-1,1.1h-1.5c-0.7,0-1-0.4-1-1.1v-2.9
		C499.6,228.6,500,228.2,500.7,228.2z M503,262.6h-3.1v-24.2h3.1V262.6z"/>
	<path class="st0" d="M512.9,240.6c1.7-1.9,4.6-2.9,8.6-2.9c4.1,0,6.9,1,8.6,2.9c1.7,1.9,2.5,5.2,2.5,9.9c0,4.7-0.8,8-2.5,9.9
		c-1.7,1.9-4.5,2.8-8.6,2.8c-4.1,0-6.9-1-8.6-2.9c-1.7-1.9-2.5-5.2-2.5-9.8C510.3,245.8,511.2,242.6,512.9,240.6z M527.6,242.7
		c-1.1-1.4-3.2-2.1-6.1-2.1c-2.9,0-5,0.7-6.1,2.1c-1.1,1.4-1.7,4.1-1.7,7.9c0,3.8,0.6,6.4,1.7,7.9c1.1,1.4,3.2,2.1,6.1,2.1
		c2.9,0,5-0.7,6.1-2.1c1.1-1.4,1.7-4,1.7-7.9C529.3,246.7,528.7,244.1,527.6,242.7z"/>
	<path class="st0" d="M542.4,238.4l0.2,4c4-3.1,7.8-4.6,11.2-4.6c4.3,0,6.5,2.2,6.5,6.6v18.2h-3.2v-17.4c0-1.7-0.3-2.9-1-3.6
		c-0.7-0.7-1.7-1.1-3.2-1.1c-1.5,0-2.9,0.3-4.4,1c-1.5,0.7-3.4,1.7-5.6,3.2v17.9h-3.2v-24.2H542.4z"/>
	<path class="st0" d="M568.6,241.2l-0.3-2.4c4.8-0.7,8.7-1.1,11.7-1.1c2.6,0,4.5,0.6,5.8,1.7c1.3,1.1,1.9,3.1,1.9,5.7v17.4h-2.5
		l-0.4-4.2c-1.2,1.2-2.8,2.3-4.7,3.2c-1.9,1-3.9,1.4-5.9,1.4c-2.1,0-3.8-0.6-5-1.7c-1.2-1.1-1.9-2.8-1.9-4.9v-2.8
		c0-1.9,0.5-3.3,1.7-4.4c1.1-1,2.7-1.6,4.7-1.6h10.8v-2.5c0-1.6-0.4-2.8-1.1-3.6c-0.8-0.8-2.1-1.1-4-1.1
		C576.5,240.5,572.9,240.7,568.6,241.2z M570.5,254.1v2.1c0,2.7,1.4,4,4.2,4c1.5,0,3.1-0.3,4.9-1.1c1.8-0.8,3.4-1.8,4.8-3v-5.8
		h-10.3C571.7,250.4,570.5,251.7,570.5,254.1z"/>
	<path class="st0" d="M599.1,227.6v29c0,2.3,1.2,3.5,3.6,3.5h2.5l0.3,2.4c-0.9,0.3-2.2,0.5-4,0.5c-1.7,0-3.1-0.5-4.1-1.5
		s-1.5-2.4-1.5-4.3v-29.6H599.1z"/>
</g>
<g>
	<path class="st0" d="M635.1,227.8v27.8c0,4.7-2.2,7.1-6.5,7.1c-1.3,0-2.7-0.2-4.1-0.5l0.4-2.3h2.6c2.9,0,4.3-1.4,4.3-4.2v-27.9
		H635.1z"/>
	<path class="st0" d="M645.1,240.3c1.7-1.9,4.6-2.9,8.6-2.9s6.9,1,8.6,2.9c1.7,1.9,2.5,5.2,2.5,9.9c0,4.7-0.8,8-2.5,9.9
		c-1.7,1.9-4.5,2.9-8.6,2.9s-6.9-1-8.6-2.9s-2.5-5.2-2.5-9.8C642.5,245.5,643.4,242.2,645.1,240.3z M659.8,242.3
		c-1.1-1.4-3.2-2.1-6.1-2.1s-5,0.7-6.1,2.1c-1.1,1.4-1.7,4.1-1.7,7.9c0,3.8,0.6,6.4,1.7,7.9c1.1,1.4,3.2,2.2,6.1,2.2s5-0.7,6.1-2.2
		c1.1-1.4,1.7-4,1.7-7.9C661.5,246.4,660.9,243.8,659.8,242.3z"/>
	<path class="st0" d="M691.9,238.1v24.2h-2.5l-0.2-3.8c-3.7,2.9-7.3,4.4-10.8,4.4c-4.4,0-6.6-2.2-6.6-6.6v-18.2h3.2v17.4
		c0,1.7,0.3,2.9,1,3.6c0.7,0.7,1.8,1.1,3.4,1.1c1.4,0,2.7-0.3,4.1-0.9c1.4-0.6,3.1-1.6,5.2-3.1v-18.1H691.9z"/>
	<path class="st0" d="M714.9,237.4l-0.4,3h-1.2c-1.4,0-2.8,0.3-4.2,0.9c-1.4,0.6-3.3,1.5-5.5,2.9v18.1h-3.2v-24.2h2.4l0.4,4
		c4-3.1,7.5-4.6,10.7-4.6H714.9z"/>
	<path class="st0" d="M722.7,238.1l0.2,4c4-3.1,7.8-4.6,11.2-4.6c4.3,0,6.5,2.2,6.5,6.6v18.2h-3.1v-17.4c0-1.7-0.3-2.9-1-3.6
		c-0.6-0.7-1.7-1.1-3.2-1.1c-1.5,0-2.9,0.3-4.4,1c-1.5,0.7-3.4,1.7-5.6,3.2v17.9H720v-24.2H722.7z"/>
	<path class="st0" d="M748.8,240.9l-0.3-2.4c4.8-0.7,8.7-1.1,11.6-1.1c2.6,0,4.5,0.6,5.8,1.7s1.9,3.1,1.9,5.7v17.4h-2.5L765,258
		c-1.2,1.2-2.8,2.3-4.7,3.2c-1.9,0.9-3.9,1.4-5.9,1.4c-2.1,0-3.8-0.6-5-1.7c-1.2-1.1-1.8-2.8-1.8-4.8v-2.8c0-1.9,0.5-3.3,1.6-4.3
		c1.1-1,2.7-1.6,4.7-1.6h10.8v-2.5c0-1.6-0.4-2.8-1.1-3.6c-0.8-0.8-2.1-1.1-4-1.1C756.7,240.2,753.1,240.4,748.8,240.9z
		 M750.7,253.7v2.1c0,2.7,1.4,4.1,4.2,4.1c1.5,0,3.1-0.3,4.9-1.1c1.8-0.8,3.4-1.8,4.8-3V250h-10.3
		C752,250.1,750.7,251.3,750.7,253.7z"/>
	<path class="st0" d="M779.3,227.3v29c0,2.3,1.2,3.5,3.5,3.5h2.5l0.4,2.4c-0.9,0.3-2.2,0.5-4,0.5c-1.7,0-3.1-0.5-4.1-1.5
		c-1-1-1.5-2.4-1.5-4.3v-29.6H779.3z"/>
	<path class="st0" d="M791.5,227.9h1.5c0.7,0,1,0.4,1,1v2.9c0,0.7-0.4,1.1-1,1.1h-1.5c-0.7,0-1-0.4-1-1.1v-2.9
		C790.5,228.2,790.8,227.9,791.5,227.9z M793.8,262.3h-3.2v-24.2h3.2V262.3z"/>
	<path class="st0" d="M813.7,252l-7.4-1.4c-1.9-0.4-3.3-1.1-4.1-2.1c-0.8-1-1.3-2.5-1.3-4.5c0-2.7,0.7-4.5,2.1-5.4s3.8-1.3,7.2-1.2
		c3.7,0.1,7,0.3,9.9,0.8l-0.3,2.3c-4-0.2-7.1-0.3-9.2-0.3c-2.7,0-4.4,0.2-5.3,0.6c-0.9,0.4-1.3,1.5-1.3,3.3c0,1.4,0.3,2.3,0.8,2.9
		c0.6,0.5,1.5,0.9,2.9,1.2l7.5,1.4c1.9,0.4,3.3,1.1,4.2,2.1c0.9,1,1.3,2.5,1.3,4.4c0,2.8-0.8,4.7-2.3,5.5s-4.1,1.3-7.8,1.3
		c-3.3,0-6.4-0.2-9.2-0.6l0.2-2.4c2.6,0.2,5.5,0.3,8.5,0.3c3,0,5-0.3,6-0.8c1-0.5,1.5-1.6,1.5-3.3c0-1.3-0.3-2.2-1-2.8
		C816,252.7,815,252.3,813.7,252z"/>
	<path class="st0" d="M830.2,238.1l0.2,4c3.6-3.1,7-4.6,10.2-4.6c3.4,0,5.5,1.5,6.2,4.6c3.5-3,6.9-4.6,10.1-4.6
		c2.1,0,3.7,0.6,4.8,1.7c1.1,1.1,1.7,2.8,1.7,4.9v18.2h-3.2v-17.4c0-1.7-0.4-2.9-1.1-3.6c-0.7-0.8-1.8-1.1-3.2-1.1
		c-1.3,0-2.6,0.3-3.9,0.9c-1.2,0.6-2.9,1.7-5,3.3v17.9h-3v-17.4c0-1.7-0.3-2.9-1-3.6s-1.8-1.1-3.2-1.1c-1.3,0-2.6,0.3-3.8,0.9
		c-1.2,0.6-2.9,1.7-5,3.2v18h-3.2v-24.2H830.2z"/>
</g>
<g>
	<path class="st0" d="M885.3,227.8v28.1c0,2.4,1.2,3.6,3.6,3.6h12.8l0.1,2.5c-3.5,0.2-8,0.3-13.5,0.3c-2.1,0-3.7-0.5-4.8-1.6
		c-1.1-1.1-1.6-2.5-1.6-4.4v-28.5H885.3z"/>
	<path class="st0" d="M907.2,240.9l-0.3-2.4c4.8-0.7,8.7-1.1,11.7-1.1c2.6,0,4.5,0.6,5.8,1.7c1.3,1.1,1.9,3.1,1.9,5.7v17.4h-2.5
		l-0.4-4.2c-1.2,1.2-2.8,2.3-4.7,3.2c-1.9,0.9-3.9,1.4-5.9,1.4c-2.1,0-3.8-0.6-5-1.7c-1.2-1.1-1.9-2.8-1.9-4.8v-2.8
		c0-1.9,0.5-3.3,1.7-4.3c1.1-1,2.7-1.6,4.7-1.6h10.8v-2.5c0-1.6-0.4-2.8-1.1-3.6c-0.8-0.8-2.1-1.1-4-1.1
		C915.1,240.2,911.5,240.4,907.2,240.9z M909.1,253.7v2.1c0,2.7,1.4,4.1,4.2,4.1c1.5,0,3.1-0.3,4.9-1.1c1.8-0.8,3.4-1.8,4.8-3V250
		h-10.3C910.3,250.1,909.1,251.3,909.1,253.7z"/>
	<path class="st0" d="M937.6,227.3v9.7c0,2.3-0.1,4.1-0.4,5.2c3.2-3.2,6.4-4.8,9.6-4.8c3.1,0,5.3,1,6.7,3c1.4,2,2.1,5.2,2.1,9.8
		c0,4.4-0.8,7.7-2.3,9.7c-1.5,2-4.2,3.1-8.1,3.1c-3.7,0-7.3-0.6-10.8-1.7v-34H937.6z M937.6,244.3v14.9c2.5,0.7,5,1,7.6,1
		c2.6,0,4.4-0.8,5.5-2.2c1.1-1.5,1.6-4.1,1.6-7.8c0-3.7-0.5-6.3-1.4-7.7c-0.9-1.5-2.6-2.2-5-2.2c-1.3,0-2.6,0.3-3.8,1
		C940.9,241.9,939.4,242.9,937.6,244.3z"/>
</g>
<g>
	<path d="M90.3,260c-0.9,1-3.1,3.2-7.7,3.2c-4.4,0-6.8-1.6-7.9-5.1c-0.4-1.4-0.4-4.1-0.4-5.8c0-4.5,0-8.1,0.1-12.3l0-2h-3.7V237
		c1.5-0.6,2.5-1.2,3.5-2c2.2-1.7,3.6-3.8,5.3-6.8h1.2v6.3h9.6v3.5h-9.6V253c0,4.4,0.8,7,5,7c2,0,3.2-0.6,4.1-1.1L90.3,260L90.3,260z
		 M244.9,259.2c1.9,0,3.2-0.3,4.6-1.1v-18.9c-0.5-0.4-2.2-1.9-5.6-1.9c-5.5,0-8.2,3.8-8.2,11.5C235.7,252,236.7,259.2,244.9,259.2
		L244.9,259.2z M245.8,219.9c1.7,0,3.9-0.3,6.6-0.8c1.5-0.3,2.6-0.6,3.1-0.7l0.5,0.3c-0.2,2.3-0.2,7.6-0.2,11.3v23
		c0,3.4,0.1,5.6,0.6,6.3c0.4,0.6,1.5,1.1,3.3,1.1v1.5c-1.8,0-3.9,0.2-6.1,0.6c-1.5,0.2-2.6,0.5-3.1,0.8l-0.8-0.3v-2.4
		c-1.4,1-4.2,2.7-7.9,2.7c-7.8,0-12.8-5.4-12.8-13.7c0-2.8,0.5-5.4,1.5-7.6c2.4-5.1,7.3-8.1,13.5-8.1c2.3,0,4.3,0.3,5.5,0.5v-6
		c0-3.5-0.1-5.4-0.6-6.2c-0.4-0.6-1-0.9-3.1-1V219.9L245.8,219.9z M206.1,235.5c1.9,0.1,4-0.1,6.2-0.5c1.7-0.3,2.8-0.7,3.4-0.9
		l0.5,0.3v2.5c1.4-1.3,3.5-2.6,6.5-2.6c2.2,0,3.7,0.6,4.9,1.7v0.9l-2.4,4.4H224c-0.8-1.3-2.2-2.6-4.7-2.6c-1.2,0-2.2,0.3-3.1,0.9
		v14.2c0,3.7,0.1,5.5,0.6,6.2c0.8,1.2,3.1,1.3,4.5,1.3v1.6c-1.9-0.1-5.3-0.3-7.7-0.3c-2.7,0-5.4,0-7.7,0.3v-1.4
		c1.6-0.1,2.5-0.5,3.1-1.2c0.9-1,0.9-3.3,0.9-8.1V244c0-3.5,0-5-0.6-5.7c-0.5-0.6-1.5-1-3.3-1V235.5L206.1,235.5z M189.2,237.1
		c-1.7,0-3,0.4-4,1.3c-2.3,1.9-3.4,5.4-3.4,10.3c0,1.9,0.4,11.4,7.3,11.4c1.7,0,3-0.4,4-1.3c2.3-1.9,3.4-5.4,3.4-10.3
		C196.5,246.6,196.2,237.1,189.2,237.1L189.2,237.1z M188.9,263.3c-8.6,0-13.8-5.4-13.8-14.4c0-7,3.8-15.1,14.4-15.1
		c8.6,0,13.8,5.4,13.8,14.4C203.2,255.2,199.5,263.3,188.9,263.3L188.9,263.3z M156.4,261.5c1.2,0,2.4-0.4,3.1-1.2
		c0.9-1,0.9-3.4,0.9-8.2v-14h-3.7v-1.6c1.6-0.6,2.9-1.3,3.7-1.9c0-2.5,0.1-5.7,0.4-7.5c1.1-5.8,4.9-8.8,11.3-8.8
		c2.8,0,5.5,1,7.1,2.3l0.1,0.6l-2.8,3.9l-0.7,0c-1-2.3-2.4-3.7-4.9-3.7c-0.9,0-2.1,0.3-2.8,1c-1.2,1.2-1.4,3-1.4,6.6v5.5h6.3v3.5
		h-6.3v15.7c0,3.7,0.1,5.5,0.6,6.3c0.8,1.2,3.3,1.3,4.5,1.3v1.5c-2.1-0.1-5.3-0.3-7.7-0.3c-3.5,0-5.8,0.1-7.7,0.3V261.5L156.4,261.5
		z M121.2,235.6c1.4,0.1,3.6,0,5.7-0.4c1.8-0.3,2.4-0.6,3.8-1.2l0.6,0.3v2.2c1.4-1.1,4.3-2.7,8.2-2.7c5.1,0,8.4,2.4,9.4,6.7
		c0.3,1.1,0.4,3.7,0.4,5.1v8.2c0,4.7,0.2,6,1.1,6.8c0.4,0.4,1.5,0.8,2.7,0.8v1.3c-1.8-0.1-5-0.3-7-0.3c-2.6,0-5.5,0.1-7.1,0.3v-1.3
		c1.4-0.1,2.4-0.6,2.8-1c0.8-0.8,1-2.5,1.1-6c0-1,0.1-3.3,0.1-4.9c0-2.1,0-4.3-0.2-6.5c-0.4-3.7-2.3-5.4-6-5.4
		c-2.6,0-4.1,0.6-5.3,1.2v14.8c0,4.7,0.2,6,1.1,6.8c0.4,0.4,1.5,0.8,2.7,0.8v1.3c-2.3-0.1-5.1-0.3-6.9-0.3c-3.8,0-4.9,0.1-7.1,0.3
		v-1.3c1.2,0,2.4-0.5,3.1-1.2c0.9-1,0.9-3.4,0.9-8.2V244c0-3.5-0.1-5-0.6-5.7c-0.4-0.6-1.4-1.1-3.3-1V235.6L121.2,235.6z
		 M44.9,261.6c0-2.8,0-5.3-0.2-8.2h1.7c0,1.8,0.5,3.1,1.3,4c1.2,1.4,4,2.2,6.5,2.2c5.4,0,7.9-2,7.9-6.4c0-3.8-2.3-5.3-5.5-7.5
		l-0.5-0.3l-3.4-2.3c-4.7-3.1-7.1-5.6-7.1-10.6c0-2.4,0.9-10.4,12.8-10.4c3,0,6.9,0.3,9.3,0.8c0,0.4-0.1,2.2-0.1,3.7
		c0,1.8,0,2.4,0.1,4.5h-1.4c0-1.9-0.6-3.1-1.4-4c-1.1-1.1-3.7-1.7-6.3-1.7c-6.3,0-7,3.2-7,5.6c0,3.3,1.7,4.5,5.4,6.9l4.3,2.8
		c3.6,2.4,7.1,4.7,7.1,10.8c0,10.2-9.5,11.3-13.7,11.3C50.9,263,47.9,262.6,44.9,261.6L44.9,261.6z M108.2,248.2
		c-3.8,1.1-5,1.8-6.2,2.4c-1.6,0.8-2.5,2.5-2.5,4.4c0,1.5,0.5,4.1,4.2,4.1c1.2,0,3-0.2,4.5-1.3V248.2L108.2,248.2z M101.4,263.1
		c-7.7,0-8.3-5.8-8.3-7.6c0-2.1,0.5-5.8,5.4-7.6c5-1.9,6.1-2.1,9.6-3.2v-0.9c0-1.7,0-2.1-0.3-3.1c-0.7-2-2.6-3.2-5.2-3.2
		c-2.6,0-4.7,1.4-5.7,3.5l-1.4-0.8c0.9-3.2,4.1-6.4,9.7-6.4c3.9,0,6.5,1.1,8.1,3.5c1.2,1.9,1.3,4.6,1.3,7.3c0,2.4-0.1,5.1-0.1,7.3
		c0,1.5-0.1,2.8-0.1,3.6c0,2,0.3,3.5,2,3.5c0.7,0,0.8-0.2,1.4-0.7l0.9,1.1c-1.5,1.9-3.1,3.6-5.9,3.6c-2.2,0-3.8-1.1-4.3-2.9
		C107.2,261.5,105,263.1,101.4,263.1L101.4,263.1z"/>
</g>
<g>
	<path d="M45.1,196.1v2.7c-3.7,0-6.3,0.8-7.8,2.5c-1.4,1.6-2.1,4.2-2.1,7.8v19.9c0,3.9-0.5,6.6-1.6,8c-1,1.4-3.2,2.5-6.4,3.2
		c3.4,1.1,5.6,2.4,6.7,3.7c1.1,1.3,1.6,3.7,1.7,7.1v25.6c0,3.5,0.7,6.1,2.1,7.8c1.4,1.6,4,2.5,7.8,2.5v2.7c-4.9,0.1-8.5-0.9-10.6-3
		c-2.1-2-3.2-5.3-3.2-9.8v-26.8c0-1.3-0.1-2.4-0.3-3.2c-0.2-0.8-0.7-1.5-1.4-2.1c-0.8-0.6-1.4-1-1.9-1.2c-0.5-0.2-1.6-0.6-3.2-1.2
		v-3.8c1.7-0.5,2.8-0.9,3.3-1c0.5-0.2,1-0.5,1.8-1.1c0.7-0.6,1.1-1.3,1.2-2.2c0.1-0.9,0.2-2.1,0.2-3.8v-21.1c0-4.5,1.1-7.8,3.2-9.9
		C36.6,197,40.1,196,45.1,196.1z"/>
</g>
<g>
	<path d="M955.8,199.3v-2.7c4.9-0.1,8.5,0.9,10.7,2.9c2.2,2,3.2,5.3,3.2,9.9v21.1c0,3.1,0.3,5,1,5.8c0.7,0.8,2.5,1.6,5.2,2.4v3.8
		c-1.6,0.6-2.7,1-3.2,1.2c-0.5,0.2-1.2,0.6-1.9,1.2c-0.7,0.6-1.2,1.3-1.4,2.1c-0.2,0.8-0.2,1.9-0.2,3.2v26.8c0,4.5-1.1,7.8-3.2,9.8
		c-2.2,2-5.7,3-10.6,3v-2.7c3.7,0,6.3-0.8,7.8-2.4c1.5-1.6,2.2-4.2,2.2-7.8v-25.6c0-3.4,0.5-5.8,1.6-7.1c1.1-1.3,3.3-2.6,6.7-3.7
		c-3.2-0.7-5.3-1.8-6.3-3.2c-1-1.4-1.6-4.1-1.6-8v-19.9c0-3.5-0.7-6.1-2.2-7.8C962.2,200.1,959.6,199.3,955.8,199.3z"/>
</g>
<g>
</g>
<g>
</g>
<g>
</g>
<g>
</g>
<g>
</g>
<g>
</g>
</svg>
