<?xml version="1.0" encoding="utf-8"?>
<!-- Generator: Adobe Illustrator 19.0.1, SVG Export Plug-In . SVG Version: 6.00 Build 0)  -->
<svg version="1.1" id="Layer_1" xmlns="http://www.w3.org/2000/svg" xmlns:xlink="http://www.w3.org/1999/xlink" x="0px" y="0px"
	 viewBox="0 0 1000 500" style="enable-background:new 0 0 1000 500;" xml:space="preserve">
<style type="text/css">
	.st0{fill:none;}
	.st1{fill:#8C191C;}
	.st2{font-family:'Exo2-Light';}
	.st3{font-size:50px;}
	.st4{font-family:'Exo2-ExtraLight';}
	.st5{font-size:100px;}
</style>
<rect x="273.8" y="227.6" class="st0" width="354.2" height="51.7"/>
<text transform="matrix(1 0 0 1 273.8366 262.6148)" class="st1 st2 st3">Computational</text>
<rect x="622.8" y="227.3" class="st0" width="522.7" height="78.7"/>
<text transform="matrix(1 0 0 1 622.8365 262.2815)" class="st1 st2 st3">Journalism</text>
<rect x="877.5" y="227.3" class="st0" width="522.7" height="78.7"/>
<text transform="matrix(1 0 0 1 877.5032 262.2815)" class="st1 st2 st3">Lab</text>
<g>
	<path d="M90.3,260c-0.9,1-3.1,3.2-7.7,3.2c-4.4,0-6.8-1.6-7.9-5.1c-0.4-1.4-0.4-4.1-0.4-5.8c0-4.5,0-8.1,0.1-12.3l0-2h-3.7V237
		c1.5-0.6,2.5-1.2,3.5-2c2.2-1.7,3.6-3.8,5.3-6.8h1.2v6.3h9.6v3.5h-9.6V253c0,4.4,0.8,7,5,7c2,0,3.2-0.6,4.1-1.1L90.3,260L90.3,260z
		 M244.9,259.2c1.9,0,3.2-0.3,4.6-1.1v-18.9c-0.5-0.4-2.2-1.9-5.6-1.9c-5.5,0-8.2,3.8-8.2,11.5C235.7,252,236.7,259.2,244.9,259.2
		L244.9,259.2z M245.8,219.9c1.7,0,3.9-0.3,6.6-0.8c1.5-0.3,2.6-0.6,3.1-0.7l0.5,0.3c-0.2,2.3-0.2,7.6-0.2,11.3v23
		c0,3.4,0.1,5.6,0.6,6.3c0.4,0.6,1.5,1.1,3.3,1.1v1.5c-1.8,0-3.9,0.2-6.1,0.6c-1.5,0.2-2.6,0.5-3.1,0.8l-0.8-0.3v-2.4
		c-1.4,1-4.2,2.7-7.9,2.7c-7.8,0-12.8-5.4-12.8-13.7c0-2.8,0.5-5.4,1.5-7.6c2.4-5.1,7.3-8.1,13.5-8.1c2.3,0,4.3,0.3,5.5,0.5v-6
		c0-3.5-0.1-5.4-0.6-6.2c-0.4-0.6-1-0.9-3.1-1V219.9L245.8,219.9z M206.1,235.5c1.9,0.1,4-0.1,6.2-0.5c1.7-0.3,2.8-0.7,3.4-0.9
		l0.5,0.3v2.5c1.4-1.3,3.5-2.6,6.5-2.6c2.2,0,3.7,0.6,4.9,1.7v0.9l-2.4,4.4H224c-0.8-1.3-2.2-2.6-4.7-2.6c-1.2,0-2.2,0.3-3.1,0.9
		v14.2c0,3.7,0.1,5.5,0.6,6.2c0.8,1.2,3.1,1.3,4.5,1.3v1.6c-1.9-0.1-5.3-0.3-7.7-0.3c-2.7,0-5.4,0-7.7,0.3v-1.4
		c1.6-0.1,2.5-0.5,3.1-1.2c0.9-1,0.9-3.3,0.9-8.1V244c0-3.5,0-5-0.6-5.7c-0.5-0.6-1.5-1-3.3-1V235.5L206.1,235.5z M189.2,237.1
		c-1.7,0-3,0.4-4,1.3c-2.3,1.9-3.4,5.4-3.4,10.3c0,1.9,0.4,11.4,7.3,11.4c1.7,0,3-0.4,4-1.3c2.3-1.9,3.4-5.4,3.4-10.3
		C196.5,246.6,196.2,237.1,189.2,237.1L189.2,237.1z M188.9,263.3c-8.6,0-13.8-5.4-13.8-14.4c0-7,3.8-15.1,14.4-15.1
		c8.6,0,13.8,5.4,13.8,14.4C203.2,255.2,199.5,263.3,188.9,263.3L188.9,263.3z M156.4,261.5c1.2,0,2.4-0.4,3.1-1.2
		c0.9-1,0.9-3.4,0.9-8.2v-14h-3.7v-1.6c1.6-0.6,2.9-1.3,3.7-1.9c0-2.5,0.1-5.7,0.4-7.5c1.1-5.8,4.9-8.8,11.3-8.8
		c2.8,0,5.5,1,7.1,2.3l0.1,0.6l-2.8,3.9l-0.7,0c-1-2.3-2.4-3.7-4.9-3.7c-0.9,0-2.1,0.3-2.8,1c-1.2,1.2-1.4,3-1.4,6.6v5.5h6.3v3.5
		h-6.3v15.7c0,3.7,0.1,5.5,0.6,6.3c0.8,1.2,3.3,1.3,4.5,1.3v1.5c-2.1-0.1-5.3-0.3-7.7-0.3c-3.5,0-5.8,0.1-7.7,0.3V261.5L156.4,261.5
		z M121.2,235.6c1.4,0.1,3.6,0,5.7-0.4c1.8-0.3,2.4-0.6,3.8-1.2l0.6,0.3v2.2c1.4-1.1,4.3-2.7,8.2-2.7c5.1,0,8.4,2.4,9.4,6.7
		c0.3,1.1,0.4,3.7,0.4,5.1v8.2c0,4.7,0.2,6,1.1,6.8c0.4,0.4,1.5,0.8,2.7,0.8v1.3c-1.8-0.1-5-0.3-7-0.3c-2.6,0-5.5,0.1-7.1,0.3v-1.3
		c1.4-0.1,2.4-0.6,2.8-1c0.8-0.8,1-2.5,1.1-6c0-1,0.1-3.3,0.1-4.9c0-2.1,0-4.3-0.2-6.5c-0.4-3.7-2.3-5.4-6-5.4
		c-2.6,0-4.1,0.6-5.3,1.2v14.8c0,4.7,0.2,6,1.1,6.8c0.4,0.4,1.5,0.8,2.7,0.8v1.3c-2.3-0.1-5.1-0.3-6.9-0.3c-3.8,0-4.9,0.1-7.1,0.3
		v-1.3c1.2,0,2.4-0.5,3.1-1.2c0.9-1,0.9-3.4,0.9-8.2V244c0-3.5-0.1-5-0.6-5.7c-0.4-0.6-1.4-1.1-3.3-1V235.6L121.2,235.6z
		 M44.9,261.6c0-2.8,0-5.3-0.2-8.2h1.7c0,1.8,0.5,3.1,1.3,4c1.2,1.4,4,2.2,6.5,2.2c5.4,0,7.9-2,7.9-6.4c0-3.8-2.3-5.3-5.5-7.5
		l-0.5-0.3l-3.4-2.3c-4.7-3.1-7.1-5.6-7.1-10.6c0-2.4,0.9-10.4,12.8-10.4c3,0,6.9,0.3,9.3,0.8c0,0.4-0.1,2.2-0.1,3.7
		c0,1.8,0,2.4,0.1,4.5h-1.4c0-1.9-0.6-3.1-1.4-4c-1.1-1.1-3.7-1.7-6.3-1.7c-6.3,0-7,3.2-7,5.6c0,3.3,1.7,4.5,5.4,6.9l4.3,2.8
		c3.6,2.4,7.1,4.7,7.1,10.8c0,10.2-9.5,11.3-13.7,11.3C50.9,263,47.9,262.6,44.9,261.6L44.9,261.6z M108.2,248.2
		c-3.8,1.1-5,1.8-6.2,2.4c-1.6,0.8-2.5,2.5-2.5,4.4c0,1.5,0.5,4.1,4.2,4.1c1.2,0,3-0.2,4.5-1.3V248.2L108.2,248.2z M101.4,263.1
		c-7.7,0-8.3-5.8-8.3-7.6c0-2.1,0.5-5.8,5.4-7.6c5-1.9,6.1-2.1,9.6-3.2v-0.9c0-1.7,0-2.1-0.3-3.1c-0.7-2-2.6-3.2-5.2-3.2
		c-2.6,0-4.7,1.4-5.7,3.5l-1.4-0.8c0.9-3.2,4.1-6.4,9.7-6.4c3.9,0,6.5,1.1,8.1,3.5c1.2,1.9,1.3,4.6,1.3,7.3c0,2.4-0.1,5.1-0.1,7.3
		c0,1.5-0.1,2.8-0.1,3.6c0,2,0.3,3.5,2,3.5c0.7,0,0.8-0.2,1.4-0.7l0.9,1.1c-1.5,1.9-3.1,3.6-5.9,3.6c-2.2,0-3.8-1.1-4.3-2.9
		C107.2,261.5,105,263.1,101.4,263.1L101.4,263.1z"/>
</g>
<rect x="19.6" y="202.9" class="st0" width="282.6" height="350.8"/>
<text transform="matrix(1 0 0 1 19.5617 272.8853)" class="st4 st5">{</text>
<rect x="951" y="203.4" class="st0" width="282.6" height="350.8"/>
<text transform="matrix(1 0 0 1 951.0411 273.389)" class="st4 st5">}</text>
</svg>
