<?xml version="1.0" encoding="utf-8"?>
<!-- Generator: Adobe Illustrator 19.0.1, SVG Export Plug-In . SVG Version: 6.00 Build 0)  -->
<svg version="1.1" id="Layer_1" xmlns="http://www.w3.org/2000/svg" xmlns:xlink="http://www.w3.org/1999/xlink" x="0px" y="0px"
	 viewBox="0 0 1000 500" style="enable-background:new 0 0 1000 500;" xml:space="preserve">
<style type="text/css">
	.st0{fill:none;}
	.st1{fill:#8C191C;}
	.st2{font-family:'Exo2-Light';}
	.st3{font-size:100px;}
	.st4{font-family:'Exo2-ExtraLight';}
	.st5{font-size:300px;}
</style>
<g>
	<rect x="158.8" y="216.6" class="st0" width="691" height="78.7"/>
	<text transform="matrix(1 0 0 1 158.8366 286.6143)" class="st1 st2 st3">Computational</text>
	<rect x="161.8" y="313.3" class="st0" width="522.7" height="78.7"/>
	<text transform="matrix(1 0 0 1 161.8366 383.281)" class="st1 st2 st3">Journalism</text>
	<rect x="668.5" y="313.3" class="st0" width="522.7" height="78.7"/>
	<text transform="matrix(1 0 0 1 668.5032 383.281)" class="st1 st2 st3">Lab</text>
	<g>
		<path d="M234.8,193.5c-1.3,1.6-4.7,4.9-11.7,4.9c-6.7,0-10.4-2.4-12.1-7.7c-0.7-2.1-0.7-6.3-0.7-8.8c0-6.9,0.1-12.5,0.1-18.9l0-3
			h-5.7v-1.7c2.3-0.9,3.9-1.8,5.4-3c3.4-2.6,5.5-5.8,8.1-10.4h1.9v9.7h14.7v5.4h-14.7v22.7c0,6.8,1.2,10.7,7.7,10.7c3,0,5-1,6.2-1.6
			L234.8,193.5L234.8,193.5z M471.5,192.3c3,0,5-0.5,7.1-1.7v-29c-0.7-0.7-3.3-2.9-8.6-2.9c-8.4,0-12.5,5.8-12.5,17.6
			C457.5,181.3,458.9,192.3,471.5,192.3L471.5,192.3z M473,132.2c2.6,0,6-0.5,10.2-1.2c2.4-0.4,3.9-0.8,4.7-1.1l0.8,0.4
			c-0.4,3.6-0.4,11.6-0.4,17.3v35.3c0,5.3,0.1,8.5,0.8,9.6c0.7,1,2.3,1.6,5,1.6v2.3c-2.7,0-6,0.3-9.3,0.9c-2.2,0.4-4,0.7-4.8,1.2
			l-1.2-0.4v-3.6c-2.1,1.6-6.4,4.1-12.1,4.1c-11.9,0-19.6-8.2-19.6-21c0-4.3,0.8-8.3,2.3-11.7c3.6-7.8,11.2-12.3,20.7-12.3
			c3.5,0,6.6,0.4,8.4,0.8v-9.2c0-5.4-0.1-8.3-0.9-9.4c-0.6-0.9-1.5-1.3-4.7-1.6V132.2L473,132.2z M412.1,156
			c2.9,0.2,6.1-0.2,9.5-0.8c2.6-0.5,4.2-1,5.1-1.4l0.8,0.4v3.8c2.1-2,5.4-4,10-4c3.4,0,5.6,0.9,7.5,2.7v1.4l-3.6,6.7h-1.8
			c-1.1-2-3.3-3.9-7.2-3.9c-1.8,0-3.4,0.4-4.7,1.4V184c0,5.7,0.2,8.4,0.9,9.5c1.2,1.8,4.8,2,6.9,1.9v2.4c-3-0.2-8.1-0.4-11.8-0.4
			c-4.2,0-8.3,0.1-11.8,0.5v-2.2c2.4-0.1,3.8-0.8,4.7-1.8c1.3-1.5,1.4-5.1,1.4-12.4V169c0-5.4,0-7.7-0.9-8.8c-0.7-1-2.3-1.5-5.1-1.6
			V156L412.1,156z M386.3,158.4c-2.6,0-4.6,0.7-6.2,2c-3.5,2.9-5.2,8.2-5.2,15.8c0,2.9,0.5,17.5,11.2,17.5c2.5,0,4.6-0.7,6.1-2
			c3.5-2.9,5.3-8.2,5.3-15.8C397.5,173,396.9,158.4,386.3,158.4L386.3,158.4z M385.7,198.6c-13.2,0-21.1-8.2-21.1-22
			c0-10.7,5.8-23.2,22-23.2c13.2,0,21.1,8.2,21.1,22C407.7,186.1,402,198.6,385.7,198.6L385.7,198.6z M335.9,195.8
			c1.8,0,3.7-0.6,4.7-1.8c1.3-1.5,1.4-5.2,1.4-12.5v-21.5h-5.6v-2.4c2.4-0.9,4.5-2,5.6-2.9c0-3.8,0.1-8.8,0.7-11.5
			c1.7-8.9,7.5-13.5,17.3-13.5c4.3,0,8.4,1.5,10.9,3.6l0.1,0.9l-4.3,6l-1.1,0c-1.5-3.6-3.7-5.6-7.5-5.6c-1.3,0-3.2,0.4-4.4,1.6
			c-1.9,1.9-2.2,4.7-2.2,10.2v8.4h9.7v5.4h-9.7v24c0,5.7,0.2,8.5,0.9,9.6c1.2,1.8,5,2,6.9,2v2.3c-3.2-0.2-8.1-0.4-11.8-0.4
			c-5.4,0-8.9,0.2-11.8,0.5V195.8L335.9,195.8z M282.1,156.2c2.2,0.2,5.5-0.1,8.7-0.6c2.7-0.5,3.7-0.9,5.8-1.9l0.9,0.5v3.4
			c2.2-1.6,6.6-4.2,12.6-4.2c7.8,0,12.9,3.6,14.3,10.3c0.4,1.6,0.6,5.6,0.6,7.7v12.6c0,7.1,0.3,9.1,1.6,10.4
			c0.7,0.6,2.3,1.3,4.2,1.3v2c-2.8-0.1-7.7-0.4-10.7-0.4c-4,0-8.4,0.2-10.8,0.5v-2c2.1-0.2,3.6-0.9,4.4-1.6c1.3-1.3,1.5-3.8,1.6-9.1
			c0.1-1.6,0.1-5,0.1-7.5c0-3.2,0-6.6-0.4-9.9c-0.6-5.6-3.6-8.2-9.2-8.2c-3.9,0-6.3,0.9-8.1,1.8v22.7c0,7.1,0.3,9.1,1.7,10.4
			c0.7,0.6,2.3,1.3,4.2,1.3v2c-3.6-0.2-7.9-0.4-10.6-0.4c-5.8,0-7.6,0.1-10.9,0.5v-2.1c1.9,0,3.7-0.7,4.7-1.8
			c1.3-1.5,1.4-5.2,1.4-12.5V169c0-5.4-0.1-7.6-0.9-8.8c-0.6-0.9-2.1-1.6-5.1-1.6V156.2L282.1,156.2z M165.2,195.9
			c0-4.4,0-8-0.3-12.5h2.6c0,2.8,0.8,4.8,2,6.2c1.8,2.1,6.1,3.3,10,3.3c8.2,0,12.1-3.1,12.1-9.8c0-5.7-3.5-8.1-8.5-11.4l-0.8-0.5
			l-5.2-3.5c-7.2-4.8-10.9-8.6-10.9-16.2c0-3.7,1.4-15.9,19.6-15.9c4.6,0,10.6,0.5,14.2,1.2c0,0.6-0.1,3.4-0.1,5.7
			c0,2.7,0,3.6,0.1,7h-2.2c-0.1-2.9-0.9-4.8-2.1-6.1c-1.8-1.7-5.6-2.5-9.7-2.5c-9.6,0-10.7,4.9-10.7,8.6c0,5.1,2.6,6.8,8.3,10.6
			l6.6,4.3c5.6,3.7,10.9,7.3,10.9,16.5c0,15.7-14.6,17.4-20.9,17.4C174.4,198.1,169.8,197.4,165.2,195.9L165.2,195.9z M262.1,175.5
			c-5.8,1.7-7.7,2.7-9.5,3.6c-2.5,1.2-3.8,3.8-3.8,6.8c0,2.3,0.8,6.3,6.5,6.3c1.9,0,4.5-0.4,6.8-2V175.5L262.1,175.5z M251.8,198.2
			c-11.8,0-12.6-8.9-12.6-11.6c0-3.2,0.8-8.9,8.3-11.6c7.7-2.8,9.4-3.2,14.7-4.8v-1.4c0-2.6,0-3.2-0.5-4.8c-1-3-4-5-7.9-5
			c-4,0-7.3,2.2-8.7,5.4l-2.2-1.3c1.4-4.9,6.3-9.8,14.8-9.8c6,0,10,1.7,12.4,5.4c1.8,2.9,2,7,2,11.2c0,3.7-0.1,7.9-0.2,11.2
			c-0.1,2.3-0.1,4.3-0.1,5.5c0,3,0.5,5.4,3,5.4c1,0,1.3-0.3,2.2-1l1.4,1.6c-2.3,3-4.8,5.4-9,5.4c-3.4,0-5.8-1.6-6.6-4.4
			C260.7,195.8,257.2,198.2,251.8,198.2L251.8,198.2z"/>
	</g>
	<rect x="87.6" y="137.9" class="st0" width="282.6" height="350.8"/>
	<text transform="matrix(1 0 0 1 87.5617 347.8849)" class="st4 st5">{</text>
	<rect x="812" y="138.4" class="st0" width="282.6" height="350.8"/>
	<text transform="matrix(1 0 0 1 812.0411 348.3885)" class="st4 st5">}</text>
</g>
</svg>
