<?xml version="1.0" encoding="utf-8"?>
<!-- Generator: Adobe Illustrator 19.0.1, SVG Export Plug-In . SVG Version: 6.00 Build 0)  -->
<svg version="1.1" id="Layer_1" xmlns="http://www.w3.org/2000/svg" xmlns:xlink="http://www.w3.org/1999/xlink" x="0px" y="0px"
	 viewBox="0 0 1000 500" style="enable-background:new 0 0 1000 500;" xml:space="preserve">
<style type="text/css">
	.st0{fill:#8C191C;}
</style>
<g>
	<g>
		<path class="st0" d="M210.9,280.8l0.8,4.9c-5.2,1.4-11.8,2.1-19.8,2.1c-9.7,0-16.6-2.7-20.5-8c-3.9-5.3-5.9-14.6-5.9-27.7
			c0-13.1,2-22.4,5.9-27.7c3.9-5.3,10.8-8,20.5-8c7.3,0,13.4,0.6,18.4,1.9l-0.8,4.9c-5.1-0.6-10.9-0.9-17.6-0.9
			c-7.3,0-12.4,2.2-15.3,6.5c-2.9,4.3-4.3,12.1-4.3,23.3s1.4,19,4.3,23.3c2.9,4.3,8,6.5,15.3,6.5
			C199.5,281.9,205.9,281.5,210.9,280.8z"/>
		<path class="st0" d="M226.6,242.7c3.4-3.8,9.1-5.8,17.2-5.8c8.1,0,13.9,1.9,17.2,5.8c3.3,3.8,5,10.4,5,19.8c0,9.3-1.7,15.9-5,19.7
			c-3.3,3.8-9.1,5.7-17.2,5.7c-8.1,0-13.9-1.9-17.2-5.8c-3.4-3.8-5-10.4-5-19.7C221.5,253.1,223.2,246.5,226.6,242.7z M256,246.7
			c-2.3-2.9-6.3-4.3-12.2-4.3c-5.9,0-9.9,1.4-12.2,4.3c-2.3,2.9-3.4,8.1-3.4,15.7c0,7.6,1.1,12.8,3.4,15.7c2.3,2.9,6.3,4.3,12.2,4.3
			c5.9,0,9.9-1.4,12.2-4.3c2.3-2.9,3.4-8.1,3.4-15.7C259.4,254.8,258.3,249.6,256,246.7z"/>
		<path class="st0" d="M285.6,238.2l0.4,8c7.1-6.2,13.9-9.3,20.4-9.3c6.9,0,11,3,12.3,9.1c7.1-6.1,13.8-9.1,20.2-9.1
			c4.1,0,7.3,1.1,9.5,3.4c2.2,2.3,3.3,5.6,3.3,9.9v36.4h-6.3v-34.7c-0.1-3.3-0.8-5.8-2.1-7.2c-1.4-1.5-3.5-2.2-6.5-2.2
			c-2.7,0-5.2,0.6-7.7,1.9c-2.5,1.2-5.8,3.4-10,6.6v35.8H313v-34.7c0-3.3-0.7-5.8-2.1-7.2s-3.6-2.2-6.5-2.2c-2.6,0-5.1,0.6-7.6,1.9
			c-2.5,1.2-5.9,3.4-10,6.5v35.9h-6.3v-48.4H285.6z"/>
		<path class="st0" d="M373.3,238.2l0.6,8c6.2-6.2,12.9-9.3,20-9.3c6,0,10.3,2.1,13,6.2c2.7,4.1,4,10.6,4,19.5
			c0,9.1-1.4,15.6-4.2,19.5c-2.8,3.8-7.4,5.8-13.8,5.8c-6.4,0-12.6-1.7-18.7-5.1c0.3,2.7,0.3,5.9,0.2,9.6V307h-6.3v-68.8H373.3z
			 M374.4,250.8v27.8c7.4,2.4,13.1,3.6,17.1,3.6c4.7,0,8.1-1.4,10-4.2c1.9-2.8,2.9-8,2.9-15.5c0-7.3-0.9-12.5-2.8-15.5
			c-1.9-3-5-4.5-9.5-4.5c-2.7,0-5.3,0.6-8,2C381.5,245.8,378.2,247.9,374.4,250.8z"/>
		<path class="st0" d="M465.2,238.2v48.4h-5l-0.5-7.6c-7.5,5.9-14.6,8.8-21.5,8.8c-8.7,0-13.1-4.4-13.1-13.2v-36.4h6.3v34.7
			c0,3.3,0.7,5.7,2.1,7.2c1.4,1.5,3.7,2.2,6.8,2.2c2.7,0,5.5-0.6,8.2-1.8c2.7-1.2,6.2-3.3,10.4-6.2v-36.1H465.2z"/>
		<path class="st0" d="M506.7,281.6l0.8,4.8c-3.3,0.7-6.7,1-10.1,1c-8,0-12-4-12-12.1v-32.1h-8.8v-4.5l8.8-0.5v-14.7h6.3v14.7h16.4
			v5h-16.4v31.4c0,4.7,2.4,7,7.1,7H506.7z"/>
		<path class="st0" d="M518.9,243.8l-0.6-4.7c9.7-1.5,17.4-2.2,23.3-2.2c5.2,0,9.1,1.2,11.7,3.5c2.6,2.3,3.8,6.1,3.8,11.5v34.8h-5
			l-0.8-8.5c-2.4,2.4-5.5,4.5-9.3,6.5c-3.8,1.9-7.8,2.8-11.8,2.8c-4.3,0-7.6-1.1-10.1-3.4c-2.5-2.3-3.7-5.5-3.7-9.7v-5.6
			c0-3.7,1.1-6.6,3.3-8.7c2.2-2.1,5.3-3.1,9.4-3.1h21.7v-5.1c0-3.2-0.8-5.6-2.2-7.1c-1.5-1.5-4.2-2.3-8.1-2.3
			C534.7,242.4,527.5,242.9,518.9,243.8z M522.7,269.5v4.2c0,5.4,2.8,8.1,8.5,8.1c2.9,0.1,6.2-0.7,9.8-2.2c3.6-1.5,6.8-3.5,9.7-6
			V262H530C525.2,262.2,522.7,264.7,522.7,269.5z"/>
		<path class="st0" d="M598.1,281.6l0.8,4.8c-3.3,0.7-6.7,1-10.1,1c-8,0-12-4-12-12.1v-32.1H568v-4.5l8.8-0.5v-14.7h6.3v14.7h16.4v5
			h-16.4v31.4c0,4.7,2.4,7,7.1,7H598.1z"/>
		<path class="st0" d="M612.5,217.8h2.9c1.4,0,2.1,0.7,2.1,2.1v5.8c0,1.4-0.7,2.1-2.1,2.1h-2.9c-1.4,0-2.1-0.7-2.1-2.1v-5.8
			C610.4,218.5,611.1,217.8,612.5,217.8z M617.1,286.6h-6.3v-48.4h6.3V286.6z"/>
		<path class="st0" d="M636.9,242.7c3.4-3.8,9.1-5.8,17.2-5.8c8.1,0,13.9,1.9,17.2,5.8c3.3,3.8,5,10.4,5,19.8c0,9.3-1.7,15.9-5,19.7
			c-3.3,3.8-9.1,5.7-17.2,5.7c-8.1,0-13.9-1.9-17.2-5.8c-3.4-3.8-5-10.4-5-19.7C631.8,253.1,633.5,246.5,636.9,242.7z M666.3,246.7
			c-2.3-2.9-6.3-4.3-12.2-4.3c-5.9,0-9.9,1.4-12.2,4.3c-2.3,2.9-3.4,8.1-3.4,15.7c0,7.6,1.1,12.8,3.4,15.7c2.3,2.9,6.3,4.3,12.2,4.3
			c5.9,0,9.9-1.4,12.2-4.3c2.3-2.9,3.4-8.1,3.4-15.7C669.7,254.8,668.6,249.6,666.3,246.7z"/>
		<path class="st0" d="M696,238.2l0.5,8c8.1-6.2,15.5-9.3,22.4-9.3c8.7,0,13,4.4,13,13.3v36.4h-6.3v-34.7c0-3.4-0.6-5.8-2-7.3
			c-1.3-1.5-3.4-2.2-6.4-2.2c-2.9,0-5.9,0.7-8.9,2c-3,1.3-6.7,3.5-11.2,6.4v35.8h-6.4v-48.4H696z"/>
		<path class="st0" d="M748.3,243.8l-0.6-4.7c9.7-1.5,17.4-2.2,23.3-2.2c5.2,0,9.1,1.2,11.7,3.5c2.6,2.3,3.8,6.1,3.8,11.5v34.8h-5
			l-0.8-8.5c-2.4,2.4-5.5,4.5-9.4,6.5c-3.8,1.9-7.8,2.8-11.8,2.8c-4.3,0-7.6-1.1-10.1-3.4c-2.5-2.3-3.7-5.5-3.7-9.7v-5.6
			c0-3.7,1.1-6.6,3.3-8.7c2.2-2.1,5.3-3.1,9.4-3.1h21.7v-5.1c0-3.2-0.8-5.6-2.2-7.1c-1.5-1.5-4.2-2.3-8-2.3
			C764.1,242.4,756.9,242.9,748.3,243.8z M752.1,269.5v4.2c0,5.4,2.8,8.1,8.5,8.1c2.9,0.1,6.2-0.7,9.9-2.2c3.6-1.5,6.8-3.5,9.6-6
			V262h-20.7C754.6,262.2,752.1,264.7,752.1,269.5z"/>
		<path class="st0" d="M809.3,216.6v58c0,4.7,2.4,7,7.1,7h5.1l0.7,4.8c-1.8,0.7-4.5,1-8,1c-3.5,0-6.2-1-8.2-3c-2-2-3-4.9-3-8.5
			v-59.2H809.3z"/>
	</g>
	<g>
		<path class="st0" d="M186.3,314.3v55.6c0,9.5-4.3,14.2-13,14.2c-2.7,0-5.4-0.3-8.2-1l0.7-4.6h5.3c5.7,0,8.6-2.8,8.6-8.4v-55.8
			H186.3z"/>
		<path class="st0" d="M206.3,339.3c3.4-3.8,9.1-5.8,17.2-5.8c8.1,0,13.9,1.9,17.2,5.8c3.3,3.8,5,10.4,5,19.8c0,9.3-1.7,15.9-5,19.7
			c-3.3,3.8-9.1,5.7-17.2,5.7c-8.1,0-13.9-1.9-17.2-5.8c-3.4-3.8-5-10.4-5-19.7C201.2,349.7,202.9,343.2,206.3,339.3z M235.7,343.4
			c-2.3-2.9-6.3-4.3-12.2-4.3c-5.9,0-9.9,1.4-12.2,4.3c-2.3,2.9-3.4,8.1-3.4,15.7s1.1,12.8,3.4,15.7c2.3,2.9,6.3,4.3,12.2,4.3
			c5.9,0,9.9-1.4,12.2-4.3c2.3-2.9,3.4-8.1,3.4-15.7S238,346.2,235.7,343.4z"/>
		<path class="st0" d="M299.9,334.9v48.4h-5l-0.5-7.6c-7.5,5.9-14.6,8.8-21.5,8.8c-8.7,0-13.1-4.4-13.1-13.2v-36.4h6.3v34.7
			c0,3.3,0.7,5.7,2.1,7.2c1.4,1.5,3.7,2.2,6.8,2.2c2.7,0,5.5-0.6,8.2-1.9c2.7-1.2,6.2-3.3,10.4-6.1v-36.1H299.9z"/>
		<path class="st0" d="M345.9,333.6l-0.8,6h-2.4c-2.8,0-5.6,0.6-8.5,1.8c-2.9,1.2-6.5,3.1-11,5.8v36.2h-6.4v-48.4h4.9l0.7,8
			c7.9-6.2,15.1-9.3,21.4-9.3H345.9z"/>
		<path class="st0" d="M361.5,334.9l0.5,8c8.1-6.2,15.5-9.3,22.4-9.3c8.7,0,13,4.4,13,13.3v36.4h-6.3v-34.7c0-3.4-0.6-5.8-1.9-7.3
			c-1.3-1.5-3.5-2.2-6.5-2.2c-2.9,0-5.9,0.7-8.9,2c-3,1.3-6.7,3.5-11.2,6.4v35.8h-6.4v-48.4H361.5z"/>
		<path class="st0" d="M413.8,340.5l-0.6-4.7c9.7-1.5,17.4-2.2,23.3-2.2c5.2,0,9.1,1.2,11.6,3.5c2.6,2.3,3.9,6.1,3.9,11.5v34.8h-5
			l-0.8-8.5c-2.4,2.4-5.5,4.5-9.4,6.5c-3.8,1.9-7.8,2.8-11.9,2.8c-4.3,0-7.6-1.1-10.1-3.4c-2.5-2.3-3.7-5.5-3.7-9.7v-5.6
			c0-3.7,1.1-6.6,3.3-8.7c2.2-2.1,5.3-3.1,9.4-3.1h21.7v-5.1c0-3.2-0.8-5.6-2.2-7.1c-1.5-1.5-4.2-2.3-8.1-2.3
			C429.6,339.1,422.4,339.5,413.8,340.5z M417.6,366.2v4.2c0,5.4,2.8,8.1,8.5,8.1c2.9,0.1,6.2-0.7,9.9-2.2c3.6-1.5,6.8-3.5,9.6-6
			v-11.6h-20.7C420.1,358.9,417.6,361.4,417.6,366.2z"/>
		<path class="st0" d="M474.8,313.3v58c0,4.7,2.4,7,7.1,7h5.1l0.7,4.8c-1.8,0.7-4.5,1-8,1c-3.5,0-6.2-1-8.2-3c-2-2-3-4.9-3-8.5
			v-59.2H474.8z"/>
		<path class="st0" d="M499.2,314.5h2.9c1.4,0,2.1,0.7,2.1,2.1v5.8c0,1.4-0.7,2.1-2.1,2.1h-2.9c-1.4,0-2.1-0.7-2.1-2.1v-5.8
			C497.1,315.2,497.8,314.5,499.2,314.5z M503.8,383.3h-6.3v-48.4h6.3V383.3z"/>
		<path class="st0" d="M543.5,362.8l-14.8-2.8c-3.8-0.7-6.5-2.1-8.2-4.2c-1.7-2-2.5-5-2.5-9c0-5.5,1.4-9,4.1-10.8
			c2.8-1.7,7.6-2.5,14.5-2.5c7.3,0.1,13.9,0.6,19.8,1.5l-0.6,4.6c-8-0.4-14.1-0.6-18.4-0.6c-5.3-0.1-8.9,0.3-10.6,1.2
			c-1.7,0.8-2.6,3-2.6,6.5c0,2.7,0.6,4.6,1.7,5.7c1.1,1.1,3,1.9,5.7,2.4l14.9,2.8c3.9,0.8,6.7,2.2,8.5,4.2c1.8,2,2.7,4.9,2.7,8.8
			c0,5.7-1.5,9.4-4.6,11.1c-3,1.7-8.2,2.6-15.5,2.6c-6.6,0-12.8-0.4-18.5-1.3l0.5-4.7c5.3,0.5,10.9,0.7,16.9,0.6
			c5.9-0.1,9.9-0.6,11.9-1.7c2-1,3.1-3.2,3.1-6.7c0-2.6-0.6-4.4-1.9-5.5C548.3,364.1,546.3,363.3,543.5,362.8z"/>
		<path class="st0" d="M576.6,334.9l0.4,8c7.1-6.2,13.9-9.3,20.4-9.3c6.9,0,11,3,12.3,9.1c7.1-6.1,13.8-9.1,20.2-9.1
			c4.1,0,7.3,1.1,9.5,3.4c2.2,2.3,3.3,5.6,3.3,9.9v36.4h-6.3v-34.7c-0.1-3.3-0.8-5.8-2.2-7.2c-1.4-1.5-3.5-2.2-6.5-2.2
			c-2.7,0-5.2,0.6-7.7,1.8c-2.5,1.2-5.8,3.4-10,6.6v35.8H604v-34.7c0-3.3-0.7-5.8-2.1-7.2c-1.4-1.5-3.6-2.2-6.5-2.2
			c-2.6,0-5.2,0.6-7.7,1.8c-2.5,1.2-5.8,3.4-10,6.5v35.9h-6.3v-48.4H576.6z"/>
	</g>
	<g>
		<path class="st0" d="M684.1,314.3v56.2c0,4.9,2.4,7.3,7.2,7.3H717l0.2,5c-7.1,0.4-16.1,0.6-27,0.6c-4.2,0-7.4-1.1-9.5-3.3
			c-2.1-2.2-3.2-5.1-3.2-8.7v-57.1H684.1z"/>
		<path class="st0" d="M727.9,340.5l-0.6-4.7c9.7-1.5,17.4-2.2,23.3-2.2c5.2,0,9.1,1.2,11.7,3.5c2.6,2.3,3.8,6.1,3.8,11.5v34.8h-5
			l-0.8-8.5c-2.4,2.4-5.5,4.5-9.3,6.5c-3.8,1.9-7.8,2.8-11.9,2.8c-4.3,0-7.6-1.1-10.1-3.4c-2.5-2.3-3.7-5.5-3.7-9.7v-5.6
			c0-3.7,1.1-6.6,3.3-8.7c2.2-2.1,5.3-3.1,9.4-3.1h21.7v-5.1c0-3.2-0.8-5.6-2.2-7.1c-1.5-1.5-4.2-2.3-8.1-2.3
			C743.7,339.1,736.5,339.5,727.9,340.5z M731.7,366.2v4.2c0,5.4,2.8,8.1,8.5,8.1c2.9,0.1,6.2-0.7,9.8-2.2c3.6-1.5,6.8-3.5,9.7-6
			v-11.6H739C734.1,358.9,731.7,361.4,731.7,366.2z"/>
		<path class="st0" d="M788.6,313.3v19.4c0,4.7-0.2,8.1-0.7,10.4c6.5-6.3,12.9-9.5,19.2-9.5c6.2,0,10.7,2,13.5,5.9
			c2.8,3.9,4.2,10.4,4.2,19.5c0,8.9-1.6,15.3-4.7,19.4c-3.1,4.1-8.5,6.1-16.2,6.1c-7.4,0-14.6-1.1-21.6-3.3v-67.9H788.6z
			 M788.6,347.4v29.7c4.9,1.4,10,2,15.2,1.9c5.2,0,8.9-1.5,11-4.5c2.2-3,3.2-8.2,3.2-15.5c0-7.4-0.9-12.6-2.8-15.5
			c-1.8-2.9-5.2-4.4-10-4.4c-2.6,0-5.1,0.7-7.5,2C795.3,342.4,792.3,344.5,788.6,347.4z"/>
	</g>
	<g>
		<path d="M234.8,193.5c-1.3,1.6-4.7,4.9-11.7,4.9c-6.7,0-10.4-2.4-12.1-7.7c-0.7-2.1-0.7-6.3-0.7-8.8c0-6.9,0.1-12.5,0.1-18.9l0-3
			h-5.7v-1.7c2.3-0.9,3.9-1.8,5.4-3c3.4-2.6,5.5-5.8,8.1-10.4h1.9v9.7h14.7v5.4h-14.7v22.7c0,6.8,1.2,10.7,7.7,10.7c3,0,5-1,6.2-1.6
			L234.8,193.5L234.8,193.5z M471.5,192.3c3,0,5-0.5,7.1-1.7v-29c-0.7-0.7-3.3-2.9-8.6-2.9c-8.4,0-12.5,5.8-12.5,17.6
			C457.5,181.3,458.9,192.3,471.5,192.3L471.5,192.3z M473,132.2c2.6,0,6-0.5,10.2-1.2c2.4-0.4,3.9-0.8,4.7-1.1l0.8,0.4
			c-0.4,3.6-0.4,11.6-0.4,17.3v35.3c0,5.3,0.1,8.5,0.8,9.6c0.7,1,2.3,1.6,5,1.6v2.3c-2.7,0-6,0.3-9.3,0.9c-2.2,0.4-4,0.7-4.8,1.2
			l-1.2-0.4v-3.6c-2.1,1.6-6.4,4.1-12.1,4.1c-11.9,0-19.6-8.2-19.6-21c0-4.3,0.8-8.3,2.3-11.7c3.6-7.8,11.2-12.3,20.7-12.3
			c3.5,0,6.6,0.4,8.4,0.8v-9.2c0-5.4-0.1-8.3-0.9-9.4c-0.6-0.9-1.5-1.3-4.7-1.6V132.2L473,132.2z M412.1,156
			c2.9,0.2,6.1-0.2,9.5-0.8c2.6-0.5,4.2-1,5.1-1.4l0.8,0.4v3.8c2.1-2,5.4-4,10-4c3.4,0,5.6,0.9,7.5,2.7v1.4l-3.6,6.7h-1.8
			c-1.1-2-3.3-3.9-7.2-3.9c-1.8,0-3.4,0.4-4.7,1.4V184c0,5.7,0.2,8.4,0.9,9.5c1.2,1.8,4.8,2,6.9,1.9v2.4c-3-0.2-8.1-0.4-11.8-0.4
			c-4.2,0-8.3,0.1-11.8,0.5v-2.2c2.4-0.1,3.8-0.8,4.7-1.8c1.3-1.5,1.4-5.1,1.4-12.4V169c0-5.4,0-7.7-0.9-8.8c-0.7-1-2.3-1.5-5.1-1.6
			V156L412.1,156z M386.3,158.4c-2.6,0-4.6,0.7-6.2,2c-3.5,2.9-5.2,8.2-5.2,15.8c0,2.9,0.5,17.5,11.2,17.5c2.5,0,4.6-0.7,6.1-2
			c3.5-2.9,5.3-8.2,5.3-15.8C397.5,173,396.9,158.4,386.3,158.4L386.3,158.4z M385.7,198.6c-13.2,0-21.1-8.2-21.1-22
			c0-10.7,5.8-23.2,22-23.2c13.2,0,21.1,8.2,21.1,22C407.7,186.1,402,198.6,385.7,198.6L385.7,198.6z M335.9,195.8
			c1.8,0,3.7-0.6,4.7-1.8c1.3-1.5,1.4-5.2,1.4-12.5v-21.5h-5.6v-2.4c2.4-0.9,4.5-2,5.6-2.9c0-3.8,0.1-8.8,0.7-11.5
			c1.7-8.9,7.5-13.5,17.3-13.5c4.3,0,8.4,1.5,10.9,3.6l0.1,0.9l-4.3,6l-1.1,0c-1.5-3.6-3.7-5.6-7.5-5.6c-1.3,0-3.2,0.4-4.4,1.6
			c-1.9,1.9-2.2,4.7-2.2,10.2v8.4h9.7v5.4h-9.7v24c0,5.7,0.2,8.5,0.9,9.6c1.2,1.8,5,2,6.9,2v2.3c-3.2-0.2-8.1-0.4-11.8-0.4
			c-5.4,0-8.9,0.2-11.8,0.5V195.8L335.9,195.8z M282.1,156.2c2.2,0.2,5.5-0.1,8.7-0.6c2.7-0.5,3.7-0.9,5.8-1.9l0.9,0.5v3.4
			c2.2-1.6,6.6-4.2,12.6-4.2c7.8,0,12.9,3.6,14.3,10.3c0.4,1.6,0.6,5.6,0.6,7.7v12.6c0,7.1,0.3,9.1,1.6,10.4
			c0.7,0.6,2.3,1.3,4.2,1.3v2c-2.8-0.1-7.7-0.4-10.7-0.4c-4,0-8.4,0.2-10.8,0.5v-2c2.1-0.2,3.6-0.9,4.4-1.6c1.3-1.3,1.5-3.8,1.6-9.1
			c0.1-1.6,0.1-5,0.1-7.5c0-3.2,0-6.6-0.4-9.9c-0.6-5.6-3.6-8.2-9.2-8.2c-3.9,0-6.3,0.9-8.1,1.8v22.7c0,7.1,0.3,9.1,1.7,10.4
			c0.7,0.6,2.3,1.3,4.2,1.3v2c-3.6-0.2-7.9-0.4-10.6-0.4c-5.8,0-7.6,0.1-10.9,0.5v-2.1c1.9,0,3.7-0.7,4.7-1.8
			c1.3-1.5,1.4-5.2,1.4-12.5V169c0-5.4-0.1-7.6-0.9-8.8c-0.6-0.9-2.1-1.6-5.1-1.6V156.2L282.1,156.2z M165.2,195.9
			c0-4.4,0-8-0.3-12.5h2.6c0,2.8,0.8,4.8,2,6.2c1.8,2.1,6.1,3.3,10,3.3c8.2,0,12.1-3.1,12.1-9.8c0-5.7-3.5-8.1-8.5-11.4l-0.8-0.5
			l-5.2-3.5c-7.2-4.8-10.9-8.6-10.9-16.2c0-3.7,1.4-15.9,19.6-15.9c4.6,0,10.6,0.5,14.2,1.2c0,0.6-0.1,3.4-0.1,5.7
			c0,2.7,0,3.6,0.1,7h-2.2c-0.1-2.9-0.9-4.8-2.1-6.1c-1.8-1.7-5.6-2.5-9.7-2.5c-9.6,0-10.7,4.9-10.7,8.6c0,5.1,2.6,6.8,8.3,10.6
			l6.6,4.3c5.6,3.7,10.9,7.3,10.9,16.5c0,15.7-14.6,17.4-20.9,17.4C174.4,198.1,169.8,197.4,165.2,195.9L165.2,195.9z M262.1,175.5
			c-5.8,1.7-7.7,2.7-9.5,3.6c-2.5,1.2-3.8,3.8-3.8,6.8c0,2.3,0.8,6.3,6.5,6.3c1.9,0,4.5-0.4,6.8-2V175.5L262.1,175.5z M251.8,198.2
			c-11.8,0-12.6-8.9-12.6-11.6c0-3.2,0.8-8.9,8.3-11.6c7.7-2.8,9.4-3.2,14.7-4.8v-1.4c0-2.6,0-3.2-0.5-4.8c-1-3-4-5-7.9-5
			c-4,0-7.3,2.2-8.7,5.4l-2.2-1.3c1.4-4.9,6.3-9.8,14.8-9.8c6,0,10,1.7,12.4,5.4c1.8,2.9,2,7,2,11.2c0,3.7-0.1,7.9-0.2,11.2
			c-0.1,2.3-0.1,4.3-0.1,5.5c0,3,0.5,5.4,3,5.4c1,0,1.3-0.3,2.2-1l1.4,1.6c-2.3,3-4.8,5.4-9,5.4c-3.4,0-5.8-1.6-6.6-4.4
			C260.7,195.8,257.2,198.2,251.8,198.2L251.8,198.2z"/>
	</g>
	<g>
		<path d="M164.1,117.5v8.1c-11.2,0-19,2.5-23.2,7.3c-4.3,4.9-6.5,12.7-6.5,23.2v59.7c0,11.8-1.6,19.8-4.6,24
			c-3.1,4.2-9.6,7.4-19.4,9.6c10.2,3.4,16.9,7.1,20.1,11.1c3.2,4,4.9,11.1,5.1,21.3v76.8c0,10.6,2.1,18.3,6.5,23.2
			c4.3,4.9,12,7.4,23.2,7.4v8.1c-14.8,0.2-25.4-2.8-31.8-8.8c-6.4-6.1-9.6-16-9.6-29.6v-80.4c0-4-0.3-7.2-0.9-9.6
			c-0.6-2.4-2.1-4.5-4.4-6.3c-2.3-1.8-4.2-3-5.7-3.8c-1.5-0.7-4.6-1.9-9.5-3.8v-11.4c5.2-1.6,8.5-2.6,9.9-3.1
			c1.4-0.5,3.2-1.6,5.2-3.5c2.1-1.8,3.3-4,3.6-6.6c0.3-2.6,0.5-6.4,0.5-11.4v-63.3c0-13.6,3.2-23.4,9.6-29.5
			C138.7,120.2,149.3,117.3,164.1,117.5z"/>
	</g>
	<g>
		<path d="M826.4,126.1V118c14.8-0.2,25.4,2.8,32,8.9c6.5,6.1,9.8,16,9.8,29.5v63.3c0,9.2,1,15,3.1,17.2c2.1,2.3,7.4,4.8,15.8,7.4
			v11.4c-4.8,1.8-8,3.1-9.6,3.8c-1.6,0.7-3.5,1.9-5.7,3.6c-2.2,1.7-3.6,3.8-4,6.3c-0.5,2.5-0.8,5.8-0.8,9.8v80.4
			c0,13.6-3.3,23.4-9.8,29.6c-6.5,6.1-17.2,9-32,8.8v-8.1c11.2,0,19-2.5,23.4-7.4c4.4-4.9,6.6-12.7,6.6-23.2v-76.8
			c0-10.2,1.7-17.3,5-21.3c3.3-4,9.9-7.7,20-11.1c-9.6-2.2-16-5.4-19.1-9.6c-3.1-4.2-4.6-12.2-4.6-24v-59.7
			c0-10.6-2.2-18.3-6.6-23.2C845.4,128.5,837.6,126.1,826.4,126.1z"/>
	</g>
</g>
<g>
</g>
<g>
</g>
<g>
</g>
<g>
</g>
<g>
</g>
<g>
</g>
</svg>
