<?xml version="1.0" encoding="utf-8"?>
<!-- Generator: Adobe Illustrator 19.0.1, SVG Export Plug-In . SVG Version: 6.00 Build 0)  -->
<svg version="1.1" id="Layer_1" xmlns="http://www.w3.org/2000/svg" xmlns:xlink="http://www.w3.org/1999/xlink" x="0px" y="0px"
	 viewBox="0 0 1000 1000" style="enable-background:new 0 0 1000 1000;" xml:space="preserve">
<style type="text/css">
	.st0{fill:#8C191C;}
</style>
<g>
	<path d="M346.8,270.4c-2.1,2.6-7.7,8.1-19.2,8.1c-10.9,0-17-3.9-19.7-12.6c-1.1-3.5-1.1-10.3-1.1-14.4c0-11.3,0.1-20.4,0.2-30.9
		l0-4.9h-9.3v-2.8c3.8-1.5,6.4-3,8.9-4.9c5.5-4.2,9-9.6,13.2-17h3.1v15.9h24v8.8h-24v37.1c0,11.1,2,17.4,12.5,17.4
		c4.9,0,8.1-1.6,10.2-2.7L346.8,270.4L346.8,270.4z M733.7,268.4c4.8,0,8.1-0.8,11.6-2.9v-47.4c-1.2-1.1-5.4-4.7-14.1-4.7
		c-13.8,0-20.4,9.4-20.4,28.8C710.7,250.3,713.1,268.4,733.7,268.4L733.7,268.4z M736.1,170.1c4.3,0,9.8-0.8,16.6-2
		c3.9-0.7,6.4-1.4,7.7-1.9l1.2,0.7c-0.6,5.8-0.6,19-0.6,28.3v57.7c0,8.6,0.1,13.9,1.4,15.7c1.1,1.6,3.7,2.7,8.1,2.7v3.8
		c-4.5,0-9.8,0.6-15.2,1.5c-3.6,0.6-6.5,1.2-7.9,1.9l-1.9-0.7v-6c-3.5,2.6-10.5,6.7-19.7,6.7c-19.4,0-32-13.5-32-34.3
		c0-7,1.3-13.5,3.8-19.1c6-12.8,18.3-20.2,33.8-20.2c5.7,0,10.8,0.7,13.8,1.3v-15c0-8.8-0.1-13.5-1.4-15.4c-1-1.4-2.4-2.2-7.7-2.5
		V170.1L736.1,170.1z M636.6,209.1c4.8,0.3,10-0.3,15.5-1.3c4.2-0.7,6.9-1.7,8.4-2.4l1.3,0.6v6.1c3.4-3.2,8.8-6.6,16.3-6.6
		c5.6,0,9.2,1.6,12.3,4.4v2.2l-5.9,10.9h-2.9c-1.9-3.3-5.4-6.4-11.8-6.4c-3,0-5.5,0.7-7.7,2.2v35.7c0,9.3,0.3,13.7,1.5,15.6
		c2,3,7.8,3.3,11.2,3.2v3.9c-4.9-0.3-13.2-0.7-19.3-0.7c-6.8,0-13.6,0.1-19.2,0.8v-3.6c3.9-0.2,6.2-1.3,7.7-3
		c2.2-2.5,2.3-8.3,2.3-20.3v-20.2c0-8.8-0.1-12.5-1.4-14.4c-1.2-1.6-3.7-2.5-8.3-2.6V209.1L636.6,209.1z M594.4,212.9
		c-4.2,0-7.6,1.1-10.1,3.2c-5.7,4.8-8.5,13.4-8.5,25.8c0,4.8,0.9,28.5,18.3,28.5c4.1,0,7.5-1.1,10-3.2c5.7-4.8,8.6-13.4,8.6-25.8
		C612.7,236.7,611.8,212.9,594.4,212.9L594.4,212.9z M593.5,278.7c-21.6,0-34.5-13.5-34.5-36c0-17.5,9.4-37.9,36-37.9
		c21.6,0,34.5,13.4,34.5,36C629.4,258.2,620,278.7,593.5,278.7L593.5,278.7z M512.1,274c2.9,0,6-1.1,7.7-3c2.2-2.4,2.3-8.4,2.3-20.5
		v-35.1h-9.2v-4c3.9-1.5,7.3-3.3,9.2-4.8c0-6.2,0.2-14.3,1.1-18.8c2.7-14.6,12.3-22,28.3-22c7.1,0,13.8,2.4,17.8,5.9l0.2,1.5l-7,9.7
		l-1.7,0c-2.4-5.9-6-9.2-12.3-9.2c-2.2,0-5.2,0.7-7.1,2.5c-3,3.1-3.6,7.6-3.6,16.6v13.7h15.8v8.8h-15.8v39.2
		c0,9.3,0.3,13.9,1.5,15.7c2,3,8.2,3.3,11.3,3.2v3.7c-5.2-0.3-13.3-0.7-19.3-0.7c-8.8,0-14.5,0.3-19.2,0.8V274L512.1,274z
		 M424.2,209.4c3.6,0.3,9-0.1,14.3-1c4.5-0.8,6.1-1.4,9.4-3.1l1.4,0.8v5.6c3.6-2.6,10.7-6.8,20.5-6.8c12.7,0,21.1,6,23.4,16.8
		c0.7,2.7,0.9,9.2,0.9,12.6V255c0,11.7,0.5,14.9,2.6,17c1.1,1,3.7,2,6.9,2v3.3c-4.5-0.2-12.6-0.7-17.5-0.7c-6.5,0-13.8,0.3-17.7,0.8
		v-3.3c3.5-0.4,5.9-1.4,7.1-2.6c2-2.1,2.4-6.1,2.7-14.9c0.1-2.6,0.2-8.2,0.2-12.2c0-5.3,0-10.8-0.6-16.2c-1.1-9.2-5.9-13.4-15-13.4
		c-6.4,0-10.3,1.5-13.3,3V255c0,11.7,0.5,14.9,2.7,17c1.1,1,3.8,2.1,6.8,2v3.3c-5.9-0.3-12.9-0.7-17.4-0.7c-9.4,0-12.4,0.2-17.8,0.8
		v-3.4c3.1,0,6-1.1,7.7-3c2.1-2.4,2.3-8.5,2.3-20.5v-20.2c0-8.8-0.2-12.5-1.4-14.4c-1-1.5-3.4-2.6-8.3-2.6V209.4L424.2,209.4z
		 M233,274.2c0-7.1,0.1-13.1-0.5-20.4h4.2c0.1,4.5,1.3,7.8,3.3,10.1c3,3.4,9.9,5.4,16.4,5.4c13.5,0,19.7-5.1,19.7-16.1
		c0-9.4-5.8-13.3-13.8-18.7l-1.2-0.9l-8.5-5.6c-11.8-7.8-17.8-14-17.8-26.5c0-6.1,2.3-26,32-26c7.5,0,17.3,0.8,23.2,1.9
		c-0.1,1-0.2,5.5-0.2,9.3c0,4.4,0,5.9,0.2,11.4h-3.6c-0.1-4.8-1.4-7.9-3.5-9.9c-2.9-2.8-9.2-4.2-15.8-4.2
		c-15.7,0-17.6,8.1-17.6,14.1c0,8.4,4.3,11.2,13.6,17.3l10.8,7.1c9.1,6.1,17.7,11.8,17.7,27c0,25.7-23.9,28.4-34.2,28.4
		C248.1,277.9,240.6,276.8,233,274.2L233,274.2z M391.5,240.9c-9.4,2.8-12.6,4.4-15.5,5.9c-4.1,2-6.2,6.2-6.2,11.1
		c0,3.8,1.4,10.3,10.6,10.3c3,0,7.4-0.6,11.2-3.3V240.9L391.5,240.9z M374.6,278.1c-19.2,0-20.7-14.5-20.7-19
		c0-5.3,1.4-14.5,13.6-19c12.6-4.6,15.3-5.2,24-7.9v-2.3c0-4.2,0-5.2-0.8-7.8c-1.7-4.9-6.5-8.1-13-8.1c-6.5,0-11.9,3.6-14.3,8.8
		l-3.5-2.1c2.3-8,10.3-16,24.2-16c9.9,0,16.3,2.8,20.3,8.8c3,4.8,3.3,11.4,3.3,18.4c0,6.1-0.2,12.9-0.3,18.4c-0.1,3.8-0.2,7-0.2,9
		c0,5,0.8,8.8,5,8.8c1.7,0,2.1-0.5,3.5-1.6l2.3,2.6c-3.7,4.9-7.9,8.9-14.8,8.9c-5.6,0-9.5-2.7-10.8-7.2
		C389.1,274,383.5,278.1,374.6,278.1L374.6,278.1z"/>
</g>
<g>
	<path d="M771.9,140.1v-21.6c39.5-0.5,67.9,7.3,85.2,23.6c17.3,16.3,26,42.5,26,78.8v168.8c0,24.5,2.8,39.9,8.4,46
		c5.6,6.1,19.6,12.7,42,19.6v30.4c-12.8,4.8-21.3,8.1-25.6,10c-4.3,1.9-9.3,5.1-15.2,9.6c-5.9,4.5-9.5,10.1-10.8,16.8
		c-1.3,6.7-2,15.3-2,26v214.4c0,36.3-8.7,62.5-26,78.8c-17.3,16.3-45.7,24.1-85.2,23.6v-21.6c29.9,0,50.7-6.5,62.4-19.6
		c11.7-13.1,17.6-33.7,17.6-62V556.9c0-27.2,4.4-46.1,13.2-56.8c8.8-10.7,26.5-20.5,53.2-29.6c-25.6-5.9-42.5-14.4-50.8-25.6
		c-8.3-11.2-12.4-32.5-12.4-64V221.7c0-28.3-5.9-48.9-17.6-62C822.6,146.6,801.8,140.1,771.9,140.1z"/>
</g>
<g>
	<path class="st0" d="M535.7,623.6l4.5,33c-27.7,7.7-61.3,11.5-101,11.5c-49.7,0-84.7-13.3-105-40c-20.3-26.7-30.5-72.8-30.5-138.5
		c0-65.7,10.2-111.8,30.5-138.5c20.3-26.7,55.3-40,105-40c35.7,0,67,3.3,94,10l-4.5,33.5c-30-3-59.8-4.5-89.5-4.5
		c-33.7,0-56.9,10.1-69.8,30.2c-12.8,20.2-19.2,56.6-19.2,109.2c0,52.7,6.4,89.1,19.2,109.2c12.8,20.2,36.1,30.2,69.8,30.2
		C477.8,629.1,510,627.3,535.7,623.6z"/>
	<path class="st0" d="M686.2,317.1v272.5c0,25.3-5.8,44.5-17.2,57.5s-28.1,19.5-49.8,19.5c-18.7,0-34-2.2-46-6.5l5-31h25
		c26,0,39-12.7,39-38v-274H686.2z"/>
</g>
<g>
	<path class="st0" d="M377.2,692.8v112.4c0,9.7,4.8,14.6,14.4,14.6H443l0.4,10c-14.1,0.8-32.1,1.2-54,1.2c-8.4,0-14.7-2.2-19-6.6
		c-4.3-4.4-6.4-10.2-6.4-17.4V692.8H377.2z"/>
	<path class="st0" d="M464.8,745.2l-1.2-9.4c19.3-2.9,34.9-4.4,46.6-4.4c10.4,0,18.2,2.3,23.3,6.9c5.1,4.6,7.7,12.2,7.7,22.9v69.6
		h-10l-1.6-17c-4.8,4.8-11,9.1-18.7,12.9c-7.7,3.8-15.6,5.7-23.7,5.7c-8.5,0-15.3-2.3-20.2-6.8c-4.9-4.5-7.4-11-7.4-19.4V795
		c0-7.5,2.2-13.3,6.6-17.4c4.4-4.1,10.7-6.2,18.8-6.2h43.4v-10.2c0-6.4-1.5-11.1-4.5-14.2c-3-3.1-8.4-4.6-16.1-4.6
		C496.4,742.4,482,743.3,464.8,745.2z M472.4,796.6v8.4c0,10.8,5.7,16.2,17,16.2c5.9,0.1,12.4-1.3,19.7-4.3c7.3-3,13.7-7,19.3-12.1
		v-23.2H487C477.3,782,472.4,787,472.4,796.6z"/>
	<path class="st0" d="M586.2,690.8v38.8c0,9.3-0.5,16.3-1.4,20.8c12.9-12.7,25.7-19,38.4-19c12.4,0,21.4,3.9,26.9,11.8
		c5.5,7.9,8.3,20.9,8.3,39c0,17.7-3.1,30.7-9.3,38.8c-6.2,8.1-17,12.2-32.3,12.2c-14.8,0-29.2-2.2-43.2-6.6V690.8H586.2z M586.2,759
		v59.4c9.9,2.8,20,4.1,30.4,3.8c10.4,0,17.8-3,22.1-9c4.3-6,6.5-16.3,6.5-31c0-14.8-1.8-25.1-5.5-30.9c-3.7-5.8-10.4-8.7-20.1-8.7
		c-5.2,0-10.2,1.3-15.1,3.9C599.7,749.1,593.6,753.2,586.2,759z"/>
</g>
<g>
	<path d="M232,118v21.6c-29.9,0-50.5,6.5-62,19.6c-11.5,13.1-17.2,33.7-17.2,62v159.2c0,31.5-4.1,52.8-12.4,64
		c-8.3,11.2-25.5,19.7-51.6,25.6c27.2,9.1,45.1,18.9,53.6,29.6c8.5,10.7,13.1,29.6,13.6,56.8v204.8c0,28.3,5.7,48.9,17.2,62
		c11.5,13.1,32.1,19.6,62,19.6v21.6c-39.5,0.5-67.7-7.3-84.8-23.6c-17.1-16.3-25.6-42.5-25.6-78.8V547.6c0-10.7-0.8-19.2-2.4-25.6
		c-1.6-6.4-5.5-12-11.6-16.8c-6.1-4.8-11.2-8.1-15.2-10c-4-1.9-12.4-5.2-25.2-10v-30.4c13.9-4.3,22.7-7.1,26.4-8.4
		c3.7-1.3,8.4-4.4,14-9.2c5.6-4.8,8.8-10.7,9.6-17.6c0.8-6.9,1.2-17.1,1.2-30.4V220.4c0-36.3,8.5-62.5,25.6-78.8
		C164.3,125.3,192.5,117.5,232,118z"/>
</g>
<g>
</g>
<g>
</g>
<g>
</g>
<g>
</g>
<g>
</g>
<g>
</g>
</svg>
